<svg xmlns="http://www.w3.org/2000/svg" xmlns:xlink="http://www.w3.org/1999/xlink" id="processonSvg1000" viewBox="102.39035624652197 152.5 859.958729498411 671.25" width="859.958729498411" height="671.25"><defs id="ProcessOnDefs1001"/><g id="ProcessOnG1002"><path id="ProcessOnPath1003" d="M102.39035624652197 152.5H962.349085744933V823.75H102.39035624652195V152.5Z" fill="#ffffff"/><g id="ProcessOnG1004"><g id="ProcessOnG1005" transform="matrix(1.0,0.0,0.0,1.0,525.5815263352393,208.9562448429973)" opacity="1.0"><path id="ProcessOnPath1006" d="M0.0 4.0Q0.0 0.0 4.0 0.0L364.7477473727282 0.0Q368.7477473727282 0.0 368.7477473727282 4.0L368.7477473727282 158.2937551570027Q368.7477473727282 162.2937551570027 364.7477473727282 162.2937551570027L4.0 162.2937551570027Q0.0 162.2937551570027 0.0 158.2937551570027Z" stroke="#323232" stroke-width="2.0" stroke-dasharray="none" opacity="1.0" fill="#99ffcc"/></g><g id="ProcessOnG1007" transform="matrix(1.0,0.0,0.0,1.0,376.27685546875,282.0796535653581)" opacity="1.0"><path id="ProcessOnPath1008" d="M0.0 4.0Q0.0 0.0 4.0 0.0L108.5 0.0Q112.5 0.0 112.5 4.0L112.5 34.239607293410074Q112.5 38.239607293410074 108.5 38.239607293410074L4.0 38.239607293410074Q0.0 38.239607293410074 0.0 34.239607293410074Z" stroke="#323232" stroke-width="2.0" stroke-dasharray="none" opacity="1.0" fill="#ccff99"/><g id="ProcessOnG1009" transform="matrix(1.0,0.0,0.0,1.0,10.0,10.994803646705037)"><text id="ProcessOnText1010" fill="#000000" font-weight="normal" font-style="normal" text-decoration="none" font-family="微软雅黑" text-anchor="middle" font-size="13" x="45.25" y="13.325">开发工具</text></g></g><g id="ProcessOnG1011" transform="matrix(1.0,0.0,0.0,1.0,544.7035437495274,226.8514126026031)" opacity="1.0"><path id="ProcessOnPath1012" d="M0.0 0.0L100.93871746723403 0.0L100.93871746723403 31.018656716417997L0.0 31.018656716417997Z" stroke="#323232" stroke-width="2.0" stroke-dasharray="none" opacity="1.0" fill="#ffffff"/><g id="ProcessOnG1013" transform="matrix(1.0,0.0,0.0,1.0,10.0,7.3843283582089985)"><text id="ProcessOnText1014" fill="#000000" font-weight="normal" font-style="normal" text-decoration="none" font-family="微软雅黑" text-anchor="middle" font-size="13" x="39.469358733617014" y="13.325">vue</text></g></g><g id="ProcessOnG1015" transform="matrix(1.0,0.0,0.0,1.0,661.9299064252443,226.8514126026031)" opacity="1.0"><path id="ProcessOnPath1016" d="M0.0 0.0L100.93871746723403 0.0L100.93871746723403 31.018656716417997L0.0 31.018656716417997Z" stroke="#323232" stroke-width="2.0" stroke-dasharray="none" opacity="1.0" fill="#ffffff"/><g id="ProcessOnG1017" transform="matrix(1.0,0.0,0.0,1.0,10.0,7.3843283582089985)"><text id="ProcessOnText1018" fill="#000000" font-weight="normal" font-style="normal" text-decoration="none" font-family="微软雅黑" text-anchor="middle" font-size="13" x="39.469358733617014" y="13.325">es6</text></g></g><g id="ProcessOnG1019" transform="matrix(1.0,0.0,0.0,1.0,375.6585693359375,398.9438202056981)" opacity="1.0"><path id="ProcessOnPath1020" d="M0.0 10.384878600859436L146.83152633523935 10.384878600859436" stroke="#888888" stroke-width="1.0" stroke-dasharray="5.0 2.0" opacity="1.0" fill="none"/><path id="ProcessOnPath1021" d="M0.0 0.0L146.83152633523935 0.0L146.83152633523935 20.76975720171887L0.0 20.76975720171887Z" stroke="#888888" stroke-width="0.0" stroke-dasharray="0.0 0.0" opacity="1.0" fill="none"/></g><g id="ProcessOnG1022" transform="matrix(1.0,0.0,0.0,1.0,661.9299064252443,276.8071831115059)" opacity="1.0"><path id="ProcessOnPath1023" d="M0.0 0.0L100.93871746723403 0.0L100.93871746723403 31.018656716417997L0.0 31.018656716417997Z" stroke="#323232" stroke-width="2.0" stroke-dasharray="none" opacity="1.0" fill="#ffffff"/><g id="ProcessOnG1024" transform="matrix(1.0,0.0,0.0,1.0,10.0,7.3843283582089985)"><text id="ProcessOnText1025" fill="#000000" font-weight="normal" font-style="normal" text-decoration="none" font-family="微软雅黑" text-anchor="middle" font-size="13" x="39.469358733617014" y="13.325">vue组件库</text></g></g><g id="ProcessOnG1026" transform="matrix(1.0,0.0,0.0,1.0,544.7035437495274,276.81224192679645)" opacity="1.0"><path id="ProcessOnPath1027" d="M0.0 0.0L100.93871746723403 0.0L100.93871746723403 31.018656716417997L0.0 31.018656716417997Z" stroke="#323232" stroke-width="2.0" stroke-dasharray="none" opacity="1.0" fill="#ffffff"/><g id="ProcessOnG1028" transform="matrix(1.0,0.0,0.0,1.0,10.0,7.3843283582089985)"><text id="ProcessOnText1029" fill="#000000" font-weight="normal" font-style="normal" text-decoration="none" font-family="微软雅黑" text-anchor="middle" font-size="13" x="39.469358733617014" y="13.325">svg图标库</text></g></g><g id="ProcessOnG1030" transform="matrix(1.0,0.0,0.0,1.0,531.1004223851237,440.2271707120709)" opacity="1.0"><path id="ProcessOnPath1031" d="M0.0 4.0Q0.0 0.0 4.0 0.0L364.7477473727282 0.0Q368.7477473727282 0.0 368.7477473727282 4.0L368.7477473727282 98.00100697059736Q368.7477473727282 102.00100697059736 364.7477473727282 102.00100697059736L4.0 102.00100697059736Q0.0 102.00100697059736 0.0 98.00100697059736Z" stroke="#323232" stroke-width="2.0" stroke-dasharray="none" opacity="1.0" fill="#ff9999"/></g><g id="ProcessOnG1032" transform="matrix(1.0,0.0,0.0,1.0,123.64035624652197,322.28232921504633)" opacity="1.0"><path id="ProcessOnPath1033" d="M0.0 0.0L92.92024962397035 0.0L92.92024962397035 42.18644853584079L0.0 42.18644853584079Z" stroke="#323232" stroke-width="0.0" stroke-dasharray="none" opacity="1.0" fill="none"/><g id="ProcessOnG1034" transform="matrix(1.0,0.0,0.0,1.0,0.0,12.968224267920395)"><text id="ProcessOnText1035" fill="#000000" font-weight="normal" font-style="normal" text-decoration="none" font-family="微软雅黑" text-anchor="middle" font-size="13" x="45.460124811985175" y="13.325">开发</text></g></g><g id="ProcessOnG1036" transform="matrix(1.0,0.0,0.0,1.0,122.39035624652197,476.15998010804987)" opacity="1.0"><path id="ProcessOnPath1037" d="M0.0 0.0L92.92024962397035 0.0L92.92024962397035 42.18644853584079L0.0 42.18644853584079Z" stroke="#323232" stroke-width="0.0" stroke-dasharray="none" opacity="1.0" fill="none"/><g id="ProcessOnG1038" transform="matrix(1.0,0.0,0.0,1.0,0.0,12.968224267920395)"><text id="ProcessOnText1039" fill="#000000" font-weight="normal" font-style="normal" text-decoration="none" font-family="微软雅黑" text-anchor="middle" font-size="13" x="45.460124811985175" y="13.325">构建</text></g></g><g id="ProcessOnG1040" transform="matrix(1.0,0.0,0.0,1.0,122.39035624652197,673.9479249968031)" opacity="1.0"><path id="ProcessOnPath1041" d="M0.0 0.0L92.92024962397035 0.0L92.92024962397035 42.18644853584079L0.0 42.18644853584079Z" stroke="#323232" stroke-width="0.0" stroke-dasharray="none" opacity="1.0" fill="none"/><g id="ProcessOnG1042" transform="matrix(1.0,0.0,0.0,1.0,0.0,12.968224267920395)"><text id="ProcessOnText1043" fill="#000000" font-weight="normal" font-style="normal" text-decoration="none" font-family="微软雅黑" text-anchor="middle" font-size="13" x="45.460124811985175" y="13.325">部署</text></g></g><g id="ProcessOnG1044" transform="matrix(1.0,0.0,0.0,1.0,123.03488749652197,747.7403319682364)" opacity="1.0"><path id="ProcessOnPath1045" d="M0.0 0.0L92.92024962397035 0.0L92.92024962397035 42.18644853584079L0.0 42.18644853584079Z" stroke="#323232" stroke-width="0.0" stroke-dasharray="none" opacity="1.0" fill="none"/><g id="ProcessOnG1046" transform="matrix(1.0,0.0,0.0,1.0,0.0,12.968224267920395)"><text id="ProcessOnText1047" fill="#000000" font-weight="normal" font-style="normal" text-decoration="none" font-family="微软雅黑" text-anchor="middle" font-size="13" x="45.460124811985175" y="13.325">运行</text></g></g><g id="ProcessOnG1048" transform="matrix(1.0,0.0,0.0,1.0,231.25,270.7279115188079)" opacity="1.0"><path id="ProcessOnPath1049" d="M0.0 4.0Q0.0 0.0 4.0 0.0L121.302105495153 0.0Q125.302105495153 0.0 125.302105495153 4.0L125.302105495153 529.0220884811921Q125.302105495153 533.0220884811921 121.302105495153 533.0220884811921L4.0 533.0220884811921Q0.0 533.0220884811921 0.0 529.0220884811921Z" stroke="#323232" stroke-width="2.0" stroke-dasharray="none" opacity="1.0" fill="#e5e5e5"/></g><g id="ProcessOnG1050" transform="matrix(1.0,0.0,0.0,1.0,245.62091692691007,292.490671641791)" opacity="1.0"><path id="ProcessOnPath1051" d="M0.0 0.0L96.51282346811946 0.0L96.51282346811946 31.018656716417997L0.0 31.018656716417997Z" stroke="#323232" stroke-width="2.0" stroke-dasharray="none" opacity="1.0" fill="#ffffff"/><g id="ProcessOnG1052" transform="matrix(1.0,0.0,0.0,1.0,10.0,7.3843283582089985)"><text id="ProcessOnText1053" fill="#000000" font-weight="normal" font-style="normal" text-decoration="none" font-family="微软雅黑" text-anchor="middle" font-size="13" x="37.25641173405973" y="13.325">接活规范</text></g></g><g id="ProcessOnG1054" transform="matrix(1.0,0.0,0.0,1.0,245.62091692691007,339.4618842013198)" opacity="1.0"><path id="ProcessOnPath1055" d="M0.0 0.0L96.51282346811946 0.0L96.51282346811946 31.018656716417997L0.0 31.018656716417997Z" stroke="#323232" stroke-width="2.0" stroke-dasharray="none" opacity="1.0" fill="#ffffff"/><g id="ProcessOnG1056" transform="matrix(1.0,0.0,0.0,1.0,10.0,7.3843283582089985)"><text id="ProcessOnText1057" fill="#000000" font-weight="normal" font-style="normal" text-decoration="none" font-family="微软雅黑" text-anchor="middle" font-size="13" x="37.25641173405973" y="13.325">代码规范</text></g></g><g id="ProcessOnG1058" transform="matrix(1.0,0.0,0.0,1.0,245.62091692691007,386.43309676084857)" opacity="1.0"><path id="ProcessOnPath1059" d="M0.0 0.0L96.51282346811946 0.0L96.51282346811946 31.018656716417997L0.0 31.018656716417997Z" stroke="#323232" stroke-width="2.0" stroke-dasharray="none" opacity="1.0" fill="#ffffff"/><g id="ProcessOnG1060" transform="matrix(1.0,0.0,0.0,1.0,10.0,7.3843283582089985)"><text id="ProcessOnText1061" fill="#000000" font-weight="normal" font-style="normal" text-decoration="none" font-family="微软雅黑" text-anchor="middle" font-size="13" x="37.25641173405973" y="13.325">接口规范</text></g></g><g id="ProcessOnG1062" transform="matrix(1.0,0.0,0.0,1.0,245.6226879620875,576.5169704695907)" opacity="1.0"><path id="ProcessOnPath1063" d="M0.0 0.0L96.51282346811946 0.0L96.51282346811946 31.018656716417997L0.0 31.018656716417997Z" stroke="#323232" stroke-width="2.0" stroke-dasharray="none" opacity="1.0" fill="#ffffff"/><g id="ProcessOnG1064" transform="matrix(1.0,0.0,0.0,1.0,10.0,7.3843283582089985)"><text id="ProcessOnText1065" fill="#000000" font-weight="normal" font-style="normal" text-decoration="none" font-family="微软雅黑" text-anchor="middle" font-size="13" x="37.25641173405973" y="13.325">兼容性规范</text></g></g><g id="ProcessOnG1066" transform="matrix(1.0,0.0,0.0,1.0,245.62091692691007,433.40430932037737)" opacity="1.0"><path id="ProcessOnPath1067" d="M0.0 0.0L96.51282346811946 0.0L96.51282346811946 31.018656716417997L0.0 31.018656716417997Z" stroke="#323232" stroke-width="2.0" stroke-dasharray="none" opacity="1.0" fill="#ffffff"/><g id="ProcessOnG1068" transform="matrix(1.0,0.0,0.0,1.0,10.0,7.3843283582089985)"><text id="ProcessOnText1069" fill="#000000" font-weight="normal" font-style="normal" text-decoration="none" font-family="微软雅黑" text-anchor="middle" font-size="13" x="37.25641173405973" y="13.325">SEO规范</text></g></g><g id="ProcessOnG1070" transform="matrix(1.0,0.0,0.0,1.0,245.64261697331406,622.9566055089845)" opacity="1.0"><path id="ProcessOnPath1071" d="M0.0 0.0L96.51282346811946 0.0L96.51282346811946 31.018656716417997L0.0 31.018656716417997Z" stroke="#323232" stroke-width="2.0" stroke-dasharray="none" opacity="1.0" fill="#ffffff"/><g id="ProcessOnG1072" transform="matrix(1.0,0.0,0.0,1.0,10.0,7.3843283582089985)"><text id="ProcessOnText1073" fill="#000000" font-weight="normal" font-style="normal" text-decoration="none" font-family="微软雅黑" text-anchor="middle" font-size="13" x="37.25641173405973" y="13.325">自测规范</text></g></g><g id="ProcessOnG1074" transform="matrix(1.0,0.0,0.0,1.0,245.64323975491493,758.4349366689964)" opacity="1.0"><path id="ProcessOnPath1075" d="M0.0 0.0L96.51282346811946 0.0L96.51282346811946 31.018656716417997L0.0 31.018656716417997Z" stroke="#323232" stroke-width="2.0" stroke-dasharray="none" opacity="1.0" fill="#ffffff"/><g id="ProcessOnG1076" transform="matrix(1.0,0.0,0.0,1.0,10.0,-0.7406716417910015)"><text id="ProcessOnText1077" fill="#000000" font-weight="normal" font-style="normal" text-decoration="none" font-family="微软雅黑" text-anchor="middle" font-size="13" x="37.25641173405973" y="13.325">故障处理规</text><text id="ProcessOnText1078" fill="#000000" font-weight="normal" font-style="normal" text-decoration="none" font-family="微软雅黑" text-anchor="middle" font-size="13" x="37.25641173405973" y="29.575">范</text></g></g><g id="ProcessOnG1079" transform="matrix(1.0,0.0,0.0,1.0,529.24547386317,400.179588999379)" opacity="1.0"><path id="ProcessOnPath1080" d="M0.0 0.0L242.33670627563924 0.0L242.33670627563924 20.0L0.0 20.0Z" stroke="#323232" stroke-width="0.0" stroke-dasharray="none" opacity="1.0" fill="none"/><g id="ProcessOnG1081" transform="matrix(1.0,0.0,0.0,1.0,0.0,-2.5)"><text id="ProcessOnText1082" fill="#000000" font-weight="normal" font-style="normal" text-decoration="none" font-family="微软雅黑" text-anchor="middle" font-size="20" x="120.16835313781962" y="20.5">乐视云计算大前端技术架构</text></g></g><g id="ProcessOnG1083" transform="matrix(1.0,0.0,0.0,1.0,234.89252034967564,172.5)" opacity="1.0"><path id="ProcessOnPath1084" d="M0.0 4.0Q0.0 0.0 4.0 0.0L122.01753613625556 0.0Q126.01753613625556 0.0 126.01753613625556 4.0L126.01753613625556 37.25Q126.01753613625556 41.25 122.01753613625556 41.25L4.0 41.25Q0.0 41.25 0.0 37.25Z" stroke="#323232" stroke-width="2.0" stroke-dasharray="none" opacity="1.0" fill="#ccff99"/><g id="ProcessOnG1085" transform="matrix(1.0,0.0,0.0,1.0,10.0,12.5)"><text id="ProcessOnText1086" fill="#000000" font-weight="normal" font-style="normal" text-decoration="none" font-family="微软雅黑" text-anchor="middle" font-size="13" x="52.00876806812778" y="13.325">流程规范</text></g></g><g id="ProcessOnG1087" transform="matrix(6.123233995736766E-17,1.0,-1.0,6.123233995736766E-17,360.97321612096505,229.52274653336252)" opacity="1.0"><path id="ProcessOnPath1088" d="M21.727253466637507 0.0Q19.554528119973757 0.0 19.554528119973757 9.0L19.554528119973757 54.058088509209895Q19.554528119973757 63.058088509209895 -0.27274653336249344 63.058088509209895Q19.554528119973757 63.058088509209895 19.554528119973757 72.0580885092099L19.554528119973757 117.11617701841979Q19.554528119973757 126.11617701841979 21.727253466637507 126.11617701841979" stroke="#323232" stroke-width="2.0" stroke-dasharray="none" opacity="1.0" fill="none"/><path id="ProcessOnPath1089" d="M0.0 0.0L21.727253466637507 0.0L21.727253466637507 126.11617701841979L0.0 126.11617701841979Z" stroke="#323232" stroke-width="0.0" stroke-dasharray="none" opacity="1.0" fill="none"/></g><g id="ProcessOnG1090" transform="matrix(1.0,0.0,0.0,1.0,550.950884604315,456.57855049996886)" opacity="1.0"><path id="ProcessOnPath1091" d="M0.0 0.0L100.26282346811945 0.0L100.26282346811945 31.018656716417997L0.0 31.018656716417997Z" stroke="#323232" stroke-width="2.0" stroke-dasharray="none" opacity="1.0" fill="#ffffff"/><g id="ProcessOnG1092" transform="matrix(1.0,0.0,0.0,1.0,10.0,7.3843283582089985)"><text id="ProcessOnText1093" fill="#000000" font-weight="normal" font-style="normal" text-decoration="none" font-family="微软雅黑" text-anchor="middle" font-size="13" x="39.131411734059725" y="13.325">webpack</text></g></g><g id="ProcessOnG1094" transform="matrix(1.0,0.0,0.0,1.0,532.99547386317,570.9376635010779)" opacity="1.0"><path id="ProcessOnPath1095" d="M0.0 4.0Q0.0 0.0 4.0 0.0L364.7477473727282 0.0Q368.7477473727282 0.0 368.7477473727282 4.0L368.7477473727282 75.31501001950687Q368.7477473727282 79.31501001950687 364.7477473727282 79.31501001950687L4.0 79.31501001950687Q0.0 79.31501001950687 0.0 75.31501001950687Z" stroke="#323232" stroke-width="2.0" stroke-dasharray="none" opacity="1.0" fill="#ffcc99"/></g><g id="ProcessOnG1096" transform="matrix(1.0,0.0,0.0,1.0,376.27685546875,475.5235274613861)" opacity="1.0"><path id="ProcessOnPath1097" d="M0.0 4.0Q0.0 0.0 4.0 0.0L108.5 0.0Q112.5 0.0 112.5 4.0L112.5 34.239607293410074Q112.5 38.239607293410074 108.5 38.239607293410074L4.0 38.239607293410074Q0.0 38.239607293410074 0.0 34.239607293410074Z" stroke="#323232" stroke-width="2.0" stroke-dasharray="none" opacity="1.0" fill="#ccff99"/><g id="ProcessOnG1098" transform="matrix(1.0,0.0,0.0,1.0,10.0,10.994803646705037)"><text id="ProcessOnText1099" fill="#000000" font-weight="normal" font-style="normal" text-decoration="none" font-family="微软雅黑" text-anchor="middle" font-size="13" x="45.25" y="13.325">构建工具</text></g></g><g id="ProcessOnG1100" transform="matrix(1.0,0.0,0.0,1.0,376.27685546875,595.2253648641263)" opacity="1.0"><path id="ProcessOnPath1101" d="M0.0 4.0Q0.0 0.0 4.0 0.0L108.5 0.0Q112.5 0.0 112.5 4.0L112.5 34.239607293410074Q112.5 38.239607293410074 108.5 38.239607293410074L4.0 38.239607293410074Q0.0 38.239607293410074 0.0 34.239607293410074Z" stroke="#323232" stroke-width="2.0" stroke-dasharray="none" opacity="1.0" fill="#ccff99"/><g id="ProcessOnG1102" transform="matrix(1.0,0.0,0.0,1.0,10.0,10.994803646705037)"><text id="ProcessOnText1103" fill="#000000" font-weight="normal" font-style="normal" text-decoration="none" font-family="微软雅黑" text-anchor="middle" font-size="13" x="45.25" y="13.325">自测&amp;QA测试</text></g></g><g id="ProcessOnG1104" transform="matrix(1.0,0.0,0.0,1.0,376.27685546875,682.4523312611539)" opacity="1.0"><path id="ProcessOnPath1105" d="M0.0 4.0Q0.0 0.0 4.0 0.0L108.5 0.0Q112.5 0.0 112.5 4.0L112.5 34.239607293410074Q112.5 38.239607293410074 108.5 38.239607293410074L4.0 38.239607293410074Q0.0 38.239607293410074 0.0 34.239607293410074Z" stroke="#323232" stroke-width="2.0" stroke-dasharray="none" opacity="1.0" fill="#ccff99"/><g id="ProcessOnG1106" transform="matrix(1.0,0.0,0.0,1.0,10.0,10.994803646705037)"><text id="ProcessOnText1107" fill="#000000" font-weight="normal" font-style="normal" text-decoration="none" font-family="微软雅黑" text-anchor="middle" font-size="13" x="45.25" y="13.325">部署平台</text></g></g><g id="ProcessOnG1108" transform="matrix(1.0,0.0,0.0,1.0,376.27685546875,761.360997198)" opacity="1.0"><path id="ProcessOnPath1109" d="M0.0 4.0Q0.0 0.0 4.0 0.0L108.5 0.0Q112.5 0.0 112.5 4.0L112.5 34.239607293410074Q112.5 38.239607293410074 108.5 38.239607293410074L4.0 38.239607293410074Q0.0 38.239607293410074 0.0 34.239607293410074Z" stroke="#323232" stroke-width="2.0" stroke-dasharray="none" opacity="1.0" fill="#ccff99"/><g id="ProcessOnG1110" transform="matrix(1.0,0.0,0.0,1.0,10.0,10.994803646705037)"><text id="ProcessOnText1111" fill="#000000" font-weight="normal" font-style="normal" text-decoration="none" font-family="微软雅黑" text-anchor="middle" font-size="13" x="45.25" y="13.325">监控体系</text></g></g><g id="ProcessOnG1112" transform="matrix(1.0,0.0,0.0,1.0,661.9299064252443,326.76295362040867)" opacity="1.0"><path id="ProcessOnPath1113" d="M0.0 0.0L100.93871746723403 0.0L100.93871746723403 31.018656716417997L0.0 31.018656716417997Z" stroke="#323232" stroke-width="2.0" stroke-dasharray="none" opacity="1.0" fill="#ffffff"/><g id="ProcessOnG1114" transform="matrix(1.0,0.0,0.0,1.0,10.0,-0.7406716417910015)"><text id="ProcessOnText1115" fill="#000000" font-weight="normal" font-style="normal" text-decoration="none" font-family="微软雅黑" text-anchor="middle" font-size="13" x="39.469358733617014" y="13.325">nodejs+koa</text><text id="ProcessOnText1116" fill="#000000" font-weight="normal" font-style="normal" text-decoration="none" font-family="微软雅黑" text-anchor="middle" font-size="13" x="39.469358733617014" y="29.575">2</text></g></g><g id="ProcessOnG1117" transform="matrix(1.0,0.0,0.0,1.0,665.0920280743694,456.57855049996886)" opacity="1.0"><path id="ProcessOnPath1118" d="M0.0 0.0L100.26282346811945 0.0L100.26282346811945 31.018656716417997L0.0 31.018656716417997Z" stroke="#323232" stroke-width="2.0" stroke-dasharray="none" opacity="1.0" fill="#ffffff"/><g id="ProcessOnG1119" transform="matrix(1.0,0.0,0.0,1.0,10.0,7.3843283582089985)"><text id="ProcessOnText1120" fill="#000000" font-weight="normal" font-style="normal" text-decoration="none" font-family="微软雅黑" text-anchor="middle" font-size="13" x="39.131411734059725" y="13.325">npm</text></g></g><g id="ProcessOnG1121" transform="matrix(1.0,0.0,0.0,1.0,550.950884604315,497.82855049996886)" opacity="1.0"><path id="ProcessOnPath1122" d="M0.0 0.0L100.26282346811945 0.0L100.26282346811945 31.018656716417997L0.0 31.018656716417997Z" stroke="#323232" stroke-width="2.0" stroke-dasharray="none" opacity="1.0" fill="#ffffff"/><g id="ProcessOnG1123" transform="matrix(1.0,0.0,0.0,1.0,10.0,7.3843283582089985)"><text id="ProcessOnText1124" fill="#000000" font-weight="normal" font-style="normal" text-decoration="none" font-family="微软雅黑" text-anchor="middle" font-size="13" x="39.131411734059725" y="13.325">gulp</text></g></g><g id="ProcessOnG1125" transform="matrix(1.0,0.0,0.0,1.0,667.2008846043151,497.82855049996886)" opacity="1.0"><path id="ProcessOnPath1126" d="M0.0 0.0L100.26282346811945 0.0L100.26282346811945 31.018656716417997L0.0 31.018656716417997Z" stroke="#323232" stroke-width="2.0" stroke-dasharray="none" opacity="1.0" fill="#ffffff"/><g id="ProcessOnG1127" transform="matrix(1.0,0.0,0.0,1.0,10.0,7.3843283582089985)"><text id="ProcessOnText1128" fill="#000000" font-weight="normal" font-style="normal" text-decoration="none" font-family="微软雅黑" text-anchor="middle" font-size="13" x="39.131411734059725" y="13.325">sass</text></g></g><g id="ProcessOnG1129" transform="matrix(1.0,0.0,0.0,1.0,779.2331715444238,456.57855049996886)" opacity="1.0"><path id="ProcessOnPath1130" d="M0.0 0.0L100.26282346811945 0.0L100.26282346811945 31.018656716417997L0.0 31.018656716417997Z" stroke="#323232" stroke-width="2.0" stroke-dasharray="none" opacity="1.0" fill="#ffffff"/><g id="ProcessOnG1131" transform="matrix(1.0,0.0,0.0,1.0,10.0,7.3843283582089985)"><text id="ProcessOnText1132" fill="#000000" font-weight="normal" font-style="normal" text-decoration="none" font-family="微软雅黑" text-anchor="middle" font-size="13" x="39.131411734059725" y="13.325">eslint</text></g></g><g id="ProcessOnG1133" transform="matrix(1.0,0.0,0.0,1.0,779.7008846043152,497.82855049996886)" opacity="1.0"><path id="ProcessOnPath1134" d="M0.0 0.0L100.26282346811945 0.0L100.26282346811945 31.018656716417997L0.0 31.018656716417997Z" stroke="#323232" stroke-width="2.0" stroke-dasharray="none" opacity="1.0" fill="#ffffff"/><g id="ProcessOnG1135" transform="matrix(1.0,0.0,0.0,1.0,10.0,7.3843283582089985)"><text id="ProcessOnText1136" fill="#000000" font-weight="normal" font-style="normal" text-decoration="none" font-family="微软雅黑" text-anchor="middle" font-size="13" x="39.131411734059725" y="13.325">babel</text></g></g><g id="ProcessOnG1137" transform="matrix(1.0,0.0,0.0,1.0,536.3071377200231,670.3480541138556)" opacity="1.0"><path id="ProcessOnPath1138" d="M0.0 4.0Q0.0 0.0 4.0 0.0L364.7477473727282 0.0Q368.7477473727282 0.0 368.7477473727282 4.0L368.7477473727282 51.274568303779006Q368.7477473727282 55.274568303779006 364.7477473727282 55.274568303779006L4.0 55.274568303779006Q0.0 55.274568303779006 0.0 51.274568303779006Z" stroke="#323232" stroke-width="2.0" stroke-dasharray="none" opacity="1.0" fill="#ccffff"/></g><g id="ProcessOnG1139" transform="matrix(1.0,0.0,0.0,1.0,562.5494367342368,681.276125543294)" opacity="1.0"><path id="ProcessOnPath1140" d="M0.0 0.0L96.51282346811946 0.0L96.51282346811946 31.018656716417997L0.0 31.018656716417997Z" stroke="#323232" stroke-width="2.0" stroke-dasharray="none" opacity="1.0" fill="#ffffff"/><g id="ProcessOnG1141" transform="matrix(1.0,0.0,0.0,1.0,10.0,7.3843283582089985)"><text id="ProcessOnText1142" fill="#000000" font-weight="normal" font-style="normal" text-decoration="none" font-family="微软雅黑" text-anchor="middle" font-size="13" x="37.25641173405973" y="13.325">火星一号</text></g></g><g id="ProcessOnG1143" transform="matrix(1.0,0.0,0.0,1.0,677.7030968516679,681.276125543294)" opacity="1.0"><path id="ProcessOnPath1144" d="M0.0 0.0L96.51282346811946 0.0L96.51282346811946 31.018656716417997L0.0 31.018656716417997Z" stroke="#323232" stroke-width="2.0" stroke-dasharray="none" opacity="1.0" fill="#ffffff"/><g id="ProcessOnG1145" transform="matrix(1.0,0.0,0.0,1.0,10.0,7.3843283582089985)"><text id="ProcessOnText1146" fill="#000000" font-weight="normal" font-style="normal" text-decoration="none" font-family="微软雅黑" text-anchor="middle" font-size="13" x="37.25641173405973" y="13.325">乐视CDN</text></g></g><g id="ProcessOnG1147" transform="matrix(1.0,0.0,0.0,1.0,792.8567569690988,681.276125543294)" opacity="1.0"><path id="ProcessOnPath1148" d="M0.0 0.0L96.51282346811946 0.0L96.51282346811946 31.018656716417997L0.0 31.018656716417997Z" stroke="#323232" stroke-width="2.0" stroke-dasharray="none" opacity="1.0" fill="#ffffff"/><g id="ProcessOnG1149" transform="matrix(1.0,0.0,0.0,1.0,10.0,7.3843283582089985)"><text id="ProcessOnText1150" fill="#000000" font-weight="normal" font-style="normal" text-decoration="none" font-family="微软雅黑" text-anchor="middle" font-size="13" x="37.25641173405973" y="13.325">自动化上线</text></g></g><g id="ProcessOnG1151" transform="matrix(1.0,0.0,0.0,1.0,776.3669235733078,280.4944415511621)" opacity="1.0"><path id="ProcessOnPath1152" d="M0.0 0.0L100.93871746723403 0.0L100.93871746723403 76.02655628449293L0.0 76.02655628449293Z" stroke="#323232" stroke-width="2.0" stroke-dasharray="none" opacity="1.0" fill="#ffffff"/><g id="ProcessOnG1153" transform="matrix(1.0,0.0,0.0,1.0,10.0,21.763278142246463)"><text id="ProcessOnText1154" fill="#000000" font-weight="normal" font-style="normal" text-decoration="none" font-family="微软雅黑" text-anchor="middle" font-size="13" x="39.469358733617014" y="13.325">自动化国际化</text><text id="ProcessOnText1155" fill="#000000" font-weight="normal" font-style="normal" text-decoration="none" font-family="微软雅黑" text-anchor="middle" font-size="13" x="39.469358733617014" y="29.575">工具</text></g></g><g id="ProcessOnG1156" transform="matrix(1.0,0.0,0.0,1.0,536.4912609576166,751.0)" opacity="1.0"><path id="ProcessOnPath1157" d="M0.0 4.0Q0.0 0.0 4.0 0.0L364.7477473727282 0.0Q368.7477473727282 0.0 368.7477473727282 4.0L368.7477473727282 45.58115995277399Q368.7477473727282 49.58115995277399 364.7477473727282 49.58115995277399L4.0 49.58115995277399Q0.0 49.58115995277399 0.0 45.58115995277399Z" stroke="#323232" stroke-width="2.0" stroke-dasharray="none" opacity="1.0" fill="#cce5ff"/></g><g id="ProcessOnG1158" transform="matrix(1.0,0.0,0.0,1.0,575.8395585931376,762.0)" opacity="1.0"><path id="ProcessOnPath1159" d="M0.0 0.0L283.31936605534133 0.0L283.31936605534133 28.784539714787343L0.0 28.784539714787343Z" stroke="#323232" stroke-width="2.0" stroke-dasharray="none" opacity="1.0" fill="#ffffff"/><g id="ProcessOnG1160" transform="matrix(1.0,0.0,0.0,1.0,10.0,6.267269857393671)"><text id="ProcessOnText1161" fill="#000000" font-weight="normal" font-style="normal" text-decoration="none" font-family="微软雅黑" text-anchor="middle" font-size="13" x="130.65968302767067" y="13.325">自动化监控报警系统</text></g></g><g id="ProcessOnG1162" transform="matrix(1.0,0.0,0.0,1.0,539.279743027246,577.729564225009)" opacity="1.0"><path id="ProcessOnPath1163" d="M0.0 0.0L78.16430112108219 0.0L78.16430112108219 27.33284395568967L0.0 27.33284395568967Z" stroke="#323232" stroke-width="2.0" stroke-dasharray="none" opacity="1.0" fill="#ffffff"/><g id="ProcessOnG1164" transform="matrix(1.0,0.0,0.0,1.0,10.0,5.541421977844834)"><text id="ProcessOnText1165" fill="#000000" font-weight="normal" font-style="normal" text-decoration="none" font-family="微软雅黑" text-anchor="middle" font-size="13" x="28.082150560541095" y="13.325">mocha</text></g></g><g id="ProcessOnG1166" transform="matrix(1.0,0.0,0.0,1.0,122.39035624652197,596.4518504635716)" opacity="1.0"><path id="ProcessOnPath1167" d="M0.0 0.0L92.92024962397035 0.0L92.92024962397035 42.18644853584079L0.0 42.18644853584079Z" stroke="#323232" stroke-width="0.0" stroke-dasharray="none" opacity="1.0" fill="none"/><g id="ProcessOnG1168" transform="matrix(1.0,0.0,0.0,1.0,0.0,12.968224267920395)"><text id="ProcessOnText1169" fill="#000000" font-weight="normal" font-style="normal" text-decoration="none" font-family="微软雅黑" text-anchor="middle" font-size="13" x="45.460124811985175" y="13.325">测试</text></g></g><g id="ProcessOnG1170" transform="matrix(1.0,0.0,0.0,1.0,245.64464101351678,683.8308575817657)" opacity="1.0"><path id="ProcessOnPath1171" d="M0.0 0.0L96.51282346811946 0.0L96.51282346811946 31.018656716417997L0.0 31.018656716417997Z" stroke="#323232" stroke-width="2.0" stroke-dasharray="none" opacity="1.0" fill="#ffffff"/><g id="ProcessOnG1172" transform="matrix(1.0,0.0,0.0,1.0,10.0,7.3843283582089985)"><text id="ProcessOnText1173" fill="#000000" font-weight="normal" font-style="normal" text-decoration="none" font-family="微软雅黑" text-anchor="middle" font-size="13" x="37.25641173405973" y="13.325">部署规范</text></g></g><g id="ProcessOnG1174" transform="matrix(1.0,0.0,0.0,1.0,632.9944282620572,577.7047270220787)" opacity="1.0"><path id="ProcessOnPath1175" d="M0.0 0.0L78.16430112108219 0.0L78.16430112108219 27.33284395568967L0.0 27.33284395568967Z" stroke="#323232" stroke-width="2.0" stroke-dasharray="none" opacity="1.0" fill="#ffffff"/><g id="ProcessOnG1176" transform="matrix(1.0,0.0,0.0,1.0,10.0,5.541421977844834)"><text id="ProcessOnText1177" fill="#000000" font-weight="normal" font-style="normal" text-decoration="none" font-family="微软雅黑" text-anchor="middle" font-size="13" x="28.082150560541095" y="13.325">chai</text></g></g><g id="ProcessOnG1178" transform="matrix(1.0,0.0,0.0,1.0,722.6233251620718,577.6647893186598)" opacity="1.0"><path id="ProcessOnPath1179" d="M0.0 0.0L78.16430112108219 0.0L78.16430112108219 27.33284395568967L0.0 27.33284395568967Z" stroke="#323232" stroke-width="2.0" stroke-dasharray="none" opacity="1.0" fill="#ffffff"/><g id="ProcessOnG1180" transform="matrix(1.0,0.0,0.0,1.0,10.0,5.541421977844834)"><text id="ProcessOnText1181" fill="#000000" font-weight="normal" font-style="normal" text-decoration="none" font-family="微软雅黑" text-anchor="middle" font-size="13" x="28.082150560541095" y="13.325">karma</text></g></g><g id="ProcessOnG1182" transform="matrix(1.0,0.0,0.0,1.0,816.1649725868854,577.0210073810547)" opacity="1.0"><path id="ProcessOnPath1183" d="M0.0 0.0L78.16430112108219 0.0L78.16430112108219 27.33284395568967L0.0 27.33284395568967Z" stroke="#323232" stroke-width="2.0" stroke-dasharray="none" opacity="1.0" fill="#ffffff"/><g id="ProcessOnG1184" transform="matrix(1.0,0.0,0.0,1.0,10.0,5.541421977844834)"><text id="ProcessOnText1185" fill="#000000" font-weight="normal" font-style="normal" text-decoration="none" font-family="微软雅黑" text-anchor="middle" font-size="13" x="28.082150560541095" y="13.325">sinonjs</text></g></g><g id="ProcessOnG1186" transform="matrix(1.0,0.0,0.0,1.0,539.279743027246,616.3935423800319)" opacity="1.0"><path id="ProcessOnPath1187" d="M0.0 0.0L78.16430112108219 0.0L78.16430112108219 27.33284395568967L0.0 27.33284395568967Z" stroke="#323232" stroke-width="2.0" stroke-dasharray="none" opacity="1.0" fill="#ffffff"/><g id="ProcessOnG1188" transform="matrix(1.0,0.0,0.0,1.0,10.0,5.541421977844834)"><text id="ProcessOnText1189" fill="#000000" font-weight="normal" font-style="normal" text-decoration="none" font-family="微软雅黑" text-anchor="middle" font-size="13" x="28.082150560541095" y="13.325">逻辑测试</text></g></g><g id="ProcessOnG1190" transform="matrix(1.0,0.0,0.0,1.0,632.9944282620572,616.3687051771017)" opacity="1.0"><path id="ProcessOnPath1191" d="M0.0 0.0L78.16430112108219 0.0L78.16430112108219 27.33284395568967L0.0 27.33284395568967Z" stroke="#323232" stroke-width="2.0" stroke-dasharray="none" opacity="1.0" fill="#ffffff"/><g id="ProcessOnG1192" transform="matrix(1.0,0.0,0.0,1.0,10.0,5.541421977844834)"><text id="ProcessOnText1193" fill="#000000" font-weight="normal" font-style="normal" text-decoration="none" font-family="微软雅黑" text-anchor="middle" font-size="13" x="28.082150560541095" y="13.325">边界测试</text></g></g><g id="ProcessOnG1194" transform="matrix(1.0,0.0,0.0,1.0,722.6233251620718,616.3287674736828)" opacity="1.0"><path id="ProcessOnPath1195" d="M0.0 0.0L78.16430112108219 0.0L78.16430112108219 27.33284395568967L0.0 27.33284395568967Z" stroke="#323232" stroke-width="2.0" stroke-dasharray="none" opacity="1.0" fill="#ffffff"/><g id="ProcessOnG1196" transform="matrix(1.0,0.0,0.0,1.0,10.0,5.541421977844834)"><text id="ProcessOnText1197" fill="#000000" font-weight="normal" font-style="normal" text-decoration="none" font-family="微软雅黑" text-anchor="middle" font-size="13" x="28.082150560541095" y="13.325">兼容性</text></g></g><g id="ProcessOnG1198" transform="matrix(1.0,0.0,0.0,1.0,816.1649725868854,615.6849855360776)" opacity="1.0"><path id="ProcessOnPath1199" d="M0.0 0.0L78.16430112108219 0.0L78.16430112108219 27.33284395568967L0.0 27.33284395568967Z" stroke="#323232" stroke-width="2.0" stroke-dasharray="none" opacity="1.0" fill="#ffffff"/><g id="ProcessOnG1200" transform="matrix(1.0,0.0,0.0,1.0,10.0,5.541421977844834)"><text id="ProcessOnText1201" fill="#000000" font-weight="normal" font-style="normal" text-decoration="none" font-family="微软雅黑" text-anchor="middle" font-size="13" x="28.082150560541095" y="13.325">安全测试</text></g></g><g id="ProcessOnG1202" transform="matrix(1.0,0.0,0.0,1.0,782.110539855998,398.94176873238854)" opacity="1.0"><path id="ProcessOnPath1203" d="M0.0 10.384878600859436L160.23854588893494 10.384878600859436" stroke="#888888" stroke-width="1.0" stroke-dasharray="5.0 2.0" opacity="1.0" fill="none"/><path id="ProcessOnPath1204" d="M0.0 0.0L160.23854588893494 0.0L160.23854588893494 20.76975720171887L0.0 20.76975720171887Z" stroke="#888888" stroke-width="0.0" stroke-dasharray="0.0 0.0" opacity="1.0" fill="none"/></g><g id="ProcessOnG1205" transform="matrix(1.0,0.0,0.0,1.0,196.56060587049234,261.3781727616234)" opacity="1.0"><path id="ProcessOnPath1206" d="M6.1875 0.0L12.5625 0.0L12.5625 530.200311436002L18.75 530.200311436002L9.375 539.575311436002L0.0 530.200311436002L6.1875 530.200311436002L6.1875 0.0Z" stroke="#323232" stroke-width="2.0" stroke-dasharray="none" opacity="1.0" fill="#ffffff"/></g><g id="ProcessOnG1207" transform="matrix(1.0,0.0,0.0,1.0,776.3669235733079,227.36738455855732)" opacity="1.0"><path id="ProcessOnPath1208" d="M0.0 0.0L100.93871746723403 0.0L100.93871746723403 31.018656716417997L0.0 31.018656716417997Z" stroke="#323232" stroke-width="2.0" stroke-dasharray="none" opacity="1.0" fill="#ffffff"/><g id="ProcessOnG1209" transform="matrix(1.0,0.0,0.0,1.0,10.0,7.3843283582089985)"><text id="ProcessOnText1210" fill="#000000" font-weight="normal" font-style="normal" text-decoration="none" font-family="微软雅黑" text-anchor="middle" font-size="13" x="39.469358733617014" y="13.325">event事件池</text></g></g><g id="ProcessOnG1211" transform="matrix(1.0,0.0,0.0,1.0,544.7035437495274,326.7730712509898)" opacity="1.0"><path id="ProcessOnPath1212" d="M0.0 0.0L100.93871746723403 0.0L100.93871746723403 30.998421455255993L0.0 30.998421455255993Z" stroke="#323232" stroke-width="2.0" stroke-dasharray="none" opacity="1.0" fill="#ffffff"/><g id="ProcessOnG1213" transform="matrix(1.0,0.0,0.0,1.0,10.0,7.374210727627997)"><text id="ProcessOnText1214" fill="#000000" font-weight="normal" font-style="normal" text-decoration="none" font-family="微软雅黑" text-anchor="middle" font-size="13" x="39.469358733617014" y="13.325">React Native</text></g></g></g></g></svg>