<svg id="kity_svg_6" xmlns="http://www.w3.org/2000/svg" xmlns:xlink="http://www.w3.org/1999/xlink" version="1.1" width="1233" height="645" style="background: rgb(251, 251, 251); visibility: visible;" viewBox="0 0 1233 645"><defs id="kity_defs_7"><linearGradient id="kity_linearGradient_17" x1="0" y1="0" x2="0" y2="1"><stop id="kity_stop_18" offset="0" stop-color="rgb(255, 255, 255)"></stop><stop id="kity_stop_19" offset="1" stop-color="rgb(204, 204, 204)"></stop></linearGradient><marker id="kity_marker_2" orient="auto" refX="6" refY="0" viewBox="-7 -7 14 14" markerWidth="7" markerHeight="7" markerUnits="userSpaceOnUse"><path id="kity_path_3" fill="rgb(115, 161, 191)" stroke="none" d="M6,0A6,6,0,1,1,-6,0A6,6,0,1,1,6,0"></path></marker></defs><g id="kity_g_8"><g id="minder1" text-rendering="optimize-speed"><g id="minder_connect_group1"><path id="kity_path_31" fill="none" stroke="rgb(115, 161, 191)" stroke-width="1" d="M692.5,314.5A47,222,0,0,1,739.5,92.5"></path><path id="kity_path_33" fill="none" stroke="rgb(115, 161, 191)" stroke-width="1" d="M837.5,92.5C840.5,92.5,840.5,91.5,843.5,91.5L972.5,91.5"></path><path id="kity_path_35" fill="none" stroke="rgb(115, 161, 191)" stroke-width="1" d="M837.5,92.5C840.5,92.5,840.5,117.5,843.5,117.5L933.5,117.5"></path><path id="kity_path_37" fill="none" stroke="rgb(115, 161, 191)" stroke-width="1" d="M692.5,314.5A47,162,0,0,1,739.5,152.5"></path><path id="kity_path_39" fill="none" stroke="rgb(115, 161, 191)" stroke-width="1" d="M809.5,152.5C812.5,152.5,812.5,151.5,815.5,151.5L1003.5,151.5"></path><path id="kity_path_41" fill="none" stroke="rgb(115, 161, 191)" stroke-width="1" d="M809.5,152.5C812.5,152.5,812.5,177.5,815.5,177.5L996.5,177.5"></path><path id="kity_path_43" fill="none" stroke="rgb(115, 161, 191)" stroke-width="1" d="M692.5,314.5A47,76,0,0,1,739.5,238.5"></path><path id="kity_path_45" fill="none" stroke="rgb(115, 161, 191)" stroke-width="1" d="M837.5,238.5C840.5,238.5,840.5,224.5,843.5,224.5L883.5,224.5"></path><path id="kity_path_47" fill="none" stroke="rgb(115, 161, 191)" stroke-width="1" d="M883.5,224.5C886.5,224.5,886.5,211.5,889.5,211.5L963.5,211.5"></path><path id="kity_path_49" fill="none" stroke="rgb(115, 161, 191)" stroke-width="1" d="M883.5,224.5C886.5,224.5,886.5,237.5,889.5,237.5L1010.5,237.5"></path><path id="kity_path_51" fill="none" stroke="rgb(115, 161, 191)" stroke-width="1" d="M837.5,238.5C840.5,238.5,840.5,276.5,843.5,276.5L888.5,276.5"></path><path id="kity_path_53" fill="none" stroke="rgb(115, 161, 191)" stroke-width="1" d="M888.5,276.5C891.5,276.5,891.5,263.5,894.5,263.5L1202.5,263.5"></path><path id="kity_path_55" fill="none" stroke="rgb(115, 161, 191)" stroke-width="1" d="M888.5,276.5C891.5,276.5,891.5,289.5,894.5,289.5L1111.5,289.5"></path><path id="kity_path_57" fill="none" stroke="rgb(115, 161, 191)" stroke-width="1" d="M692.5,314.5A47,10,0,0,0,739.5,324.5"></path><path id="kity_path_59" fill="none" stroke="rgb(115, 161, 191)" stroke-width="1" d="M837.5,324.5C840.5,324.5,840.5,323.5,843.5,323.5L1118.5,323.5"></path><path id="kity_path_61" fill="none" stroke="rgb(115, 161, 191)" stroke-width="1" d="M837.5,324.5C840.5,324.5,840.5,349.5,843.5,349.5L1040.5,349.5"></path><path id="kity_path_63" fill="none" stroke="rgb(115, 161, 191)" stroke-width="1" d="M692.5,314.5A47,70,0,0,0,739.5,384.5"></path><path id="kity_path_65" fill="none" stroke="rgb(115, 161, 191)" stroke-width="1" d="M827.5,384.5C830.5,384.5,830.5,383.5,833.5,383.5L1193.5,383.5"></path><path id="kity_path_67" fill="none" stroke="rgb(115, 161, 191)" stroke-width="1" d="M827.5,384.5C830.5,384.5,830.5,409.5,833.5,409.5L1204.5,409.5"></path><path id="kity_path_69" fill="none" stroke="rgb(115, 161, 191)" stroke-width="1" d="M692.5,314.5A47,121,0,0,0,739.5,435.5"></path><path id="kity_path_71" fill="none" stroke="rgb(115, 161, 191)" stroke-width="1" d="M827.5,435.5C830.5,435.5,830.5,447.5,833.5,447.5L1127.5,447.5"></path><path id="kity_path_73" fill="none" stroke="rgb(115, 161, 191)" stroke-width="1" d="M692.5,314.5A47,172,0,0,0,739.5,486.5"></path><path id="kity_path_75" fill="none" stroke="rgb(115, 161, 191)" stroke-width="1" d="M837.5,486.5C840.5,486.5,840.5,485.5,843.5,485.5L981.5,485.5"></path><path id="kity_path_77" fill="none" stroke="rgb(115, 161, 191)" stroke-width="1" d="M837.5,486.5C840.5,486.5,840.5,511.5,843.5,511.5L1055.5,511.5"></path><path id="kity_path_79" fill="none" stroke="rgb(115, 161, 191)" stroke-width="1" d="M692.5,314.5A47,223,0,0,0,739.5,537.5"></path><path id="kity_path_81" fill="none" stroke="rgb(115, 161, 191)" stroke-width="1" d="M837.5,537.5C840.5,537.5,840.5,549.5,843.5,549.5L1213.5,549.5"></path><path id="kity_path_83" fill="none" stroke="rgb(115, 161, 191)" stroke-width="1" d="M692.5,314.5A47,272,0,0,0,645.5,42.5"></path><path id="kity_path_85" fill="none" stroke="rgb(115, 161, 191)" stroke-width="1" d="M567.5,42.5C564.5,42.5,564.5,41.5,561.5,41.5L230.5,41.5"></path><path id="kity_path_87" fill="none" stroke="rgb(115, 161, 191)" stroke-width="1" d="M567.5,42.5C564.5,42.5,564.5,67.5,561.5,67.5L206.5,67.5"></path><path id="kity_path_89" fill="none" stroke="rgb(115, 161, 191)" stroke-width="1" d="M692.5,314.5A47,221,0,0,0,645.5,93.5"></path><path id="kity_path_91" fill="none" stroke="rgb(115, 161, 191)" stroke-width="1" d="M565.5,93.5C562.5,93.5,562.5,105.5,559.5,105.5L312.5,105.5"></path><path id="kity_path_93" fill="none" stroke="rgb(115, 161, 191)" stroke-width="1" d="M692.5,314.5A47,179,0,0,0,645.5,135.5"></path><path id="kity_path_95" fill="none" stroke="rgb(115, 161, 191)" stroke-width="1" d="M535.5,135.5C532.5,135.5,532.5,147.5,529.5,147.5L340.5,147.5"></path><path id="kity_path_97" fill="none" stroke="rgb(115, 161, 191)" stroke-width="1" d="M692.5,314.5A47,115,0,0,0,645.5,199.5"></path><path id="kity_path_99" fill="none" stroke="rgb(115, 161, 191)" stroke-width="1" d="M547.5,199.5C544.5,199.5,544.5,185.5,541.5,185.5L428.5,185.5"></path><path id="kity_path_101" fill="none" stroke="rgb(115, 161, 191)" stroke-width="1" d="M547.5,199.5C544.5,199.5,544.5,211.5,541.5,211.5L336.5,211.5"></path><path id="kity_path_103" fill="none" stroke="rgb(115, 161, 191)" stroke-width="1" d="M547.5,199.5C544.5,199.5,544.5,237.5,541.5,237.5L244.5,237.5"></path><path id="kity_path_105" fill="none" stroke="rgb(115, 161, 191)" stroke-width="1" d="M692.5,314.5A47,42,0,0,0,645.5,272.5"></path><path id="kity_path_107" fill="none" stroke="rgb(115, 161, 191)" stroke-width="1" d="M529.5,272.5C526.5,272.5,526.5,271.5,523.5,271.5L382.5,271.5"></path><path id="kity_path_109" fill="none" stroke="rgb(115, 161, 191)" stroke-width="1" d="M529.5,272.5C526.5,272.5,526.5,297.5,523.5,297.5L301.5,297.5"></path><path id="kity_path_111" fill="none" stroke="rgb(115, 161, 191)" stroke-width="1" d="M692.5,314.5A47,148,0,0,1,645.5,462.5"></path><path id="kity_path_113" fill="none" stroke="rgb(115, 161, 191)" stroke-width="1" d="M547.5,462.5C544.5,462.5,544.5,409.5,541.5,409.5L487.5,409.5"></path><path id="kity_path_115" fill="none" stroke="rgb(115, 161, 191)" stroke-width="1" d="M487.5,409.5C484.5,409.5,484.5,331.5,481.5,331.5L315.5,331.5"></path><path id="kity_path_117" fill="none" stroke="rgb(115, 161, 191)" stroke-width="1" d="M487.5,409.5C484.5,409.5,484.5,357.5,481.5,357.5L322.5,357.5"></path><path id="kity_path_119" fill="none" stroke="rgb(115, 161, 191)" stroke-width="1" d="M487.5,409.5C484.5,409.5,484.5,383.5,481.5,383.5L277.5,383.5"></path><path id="kity_path_121" fill="none" stroke="rgb(115, 161, 191)" stroke-width="1" d="M487.5,409.5C484.5,409.5,484.5,409.5,481.5,409.5L354.5,409.5"></path><path id="kity_path_123" fill="none" stroke="rgb(115, 161, 191)" stroke-width="1" d="M487.5,409.5C484.5,409.5,484.5,435.5,481.5,435.5L336.5,435.5"></path><path id="kity_path_125" fill="none" stroke="rgb(115, 161, 191)" stroke-width="1" d="M487.5,409.5C484.5,409.5,484.5,461.5,481.5,461.5L360.5,461.5"></path><path id="kity_path_127" fill="none" stroke="rgb(115, 161, 191)" stroke-width="1" d="M487.5,409.5C484.5,409.5,484.5,487.5,481.5,487.5L362.5,487.5"></path><path id="kity_path_129" fill="none" stroke="rgb(115, 161, 191)" stroke-width="1" d="M547.5,462.5C544.5,462.5,544.5,513.5,541.5,513.5L490.5,513.5"></path><path id="kity_path_131" fill="none" stroke="rgb(115, 161, 191)" stroke-width="1" d="M490.5,513.5C487.5,513.5,487.5,513.5,484.5,513.5L296.5,513.5"></path><path id="kity_path_133" fill="none" stroke="rgb(115, 161, 191)" stroke-width="1" d="M296.5,513.5C293.5,513.5,293.5,513.5,290.5,513.5L20.5,513.5"></path><path id="kity_path_135" fill="none" stroke="rgb(115, 161, 191)" stroke-width="1" d="M547.5,462.5C544.5,462.5,544.5,539.5,541.5,539.5L411.5,539.5"></path><path id="kity_path_137" fill="none" stroke="rgb(115, 161, 191)" stroke-width="1" d="M692.5,314.5A47,273,0,0,1,645.5,587.5"></path><path id="kity_path_139" fill="none" stroke="rgb(115, 161, 191)" stroke-width="1" d="M454.5,587.5C451.5,587.5,451.5,573.5,448.5,573.5L344.5,573.5"></path><path id="kity_path_141" fill="none" stroke="rgb(115, 161, 191)" stroke-width="1" d="M454.5,587.5C451.5,587.5,451.5,599.5,448.5,599.5L143.5,599.5"></path><path id="kity_path_143" fill="none" stroke="rgb(115, 161, 191)" stroke-width="1" d="M454.5,587.5C451.5,587.5,451.5,625.5,448.5,625.5L39.5,625.5"></path></g><g id="minder_node1"><path id="node_outline1" fill="rgb(115, 161, 191)" stroke="rgb(115, 161, 191)" d="M666.5,300.5h52a5,5,0,0,1,5,5v18a5,5,0,0,1,-5,5h-52a5,5,0,0,1,-5,-5v-18a5,5,0,0,1,5,-5z" stroke-width="3"></path><g id="node_text1" fill="white"><text id="kity_text_22" text-rendering="inherit" font-size="16" dy=".8em" y="306.5" x="673.5">koa2</text></g></g><g id="kity_g_12"><path id="kity_path_13" fill="none" stroke="none" d="M673.5,314.5h0v0h0z"></path></g><g id="kity_g_14"><path id="kity_path_15" fill="none" stroke="none" d="M673.5,314.5h0v0h0z"></path><path id="kity_path_16" fill="none" stroke="none"></path></g><g id="minder_node2"><g id="node_expander3" style="cursor: pointer;"><path id="kity_path_322" fill="white" stroke="gray" d="M740.5,92.5A6,6,0,1,1,728.5,92.5A6,6,0,1,1,740.5,92.5"></path><path id="kity_path_323" fill="none" stroke="gray" d="M730,92.5L739,92.5"></path></g><path id="node_outline4" fill="rgb(238, 243, 246)" stroke="rgb(115, 161, 191)" d="M744.5,79.5h90a3,3,0,0,1,3,3v20a3,3,0,0,1,-3,3h-90a3,3,0,0,1,-3,-3v-20a3,3,0,0,1,3,-3z" stroke-width="1"></path><g id="node_text4" fill="black"><text id="kity_text_149" text-rendering="inherit" font-size="14" dy=".8em" y="85.5" x="761.5">核心依赖</text></g></g><g id="minder_node3"><g id="node_expander1" style="cursor: pointer;" display="none"><path id="kity_path_316" fill="white" stroke="gray" d="M864.5,79.5A6,6,0,1,1,852.5,79.5A6,6,0,1,1,864.5,79.5"></path><path id="kity_path_317" fill="none" stroke="gray"></path></g><path id="node_outline2" fill="none" stroke="none" d="M858.5,70.5h109a5,5,0,0,1,5,5v8a5,5,0,0,1,-5,5h-109a5,5,0,0,1,-5,-5v-8a5,5,0,0,1,5,-5z"></path><g id="node_text2" fill="black"><text id="kity_text_145" text-rendering="inherit" font-size="12" dy=".8em" y="73.5" x="858.5">node 7.6.0版本以上</text></g></g><g id="minder_node4"><g id="node_expander2" style="cursor: pointer;" display="none"><path id="kity_path_319" fill="white" stroke="gray" d="M864.5,105.5A6,6,0,1,1,852.5,105.5A6,6,0,1,1,864.5,105.5"></path><path id="kity_path_320" fill="none" stroke="gray"></path></g><path id="node_outline3" fill="none" stroke="none" d="M858.5,96.5h70a5,5,0,0,1,5,5v8a5,5,0,0,1,-5,5h-70a5,5,0,0,1,-5,-5v-8a5,5,0,0,1,5,-5z"></path><g id="node_text3" fill="black"><text id="kity_text_147" text-rendering="inherit" font-size="12" dy=".8em" y="99.5" x="858.5">async await</text></g></g><g id="minder_node5"><g id="node_expander6" style="cursor: pointer;"><path id="kity_path_331" fill="white" stroke="gray" d="M740.5,152.5A6,6,0,1,1,728.5,152.5A6,6,0,1,1,740.5,152.5"></path><path id="kity_path_332" fill="none" stroke="gray" d="M730,152.5L739,152.5"></path></g><path id="node_outline7" fill="rgb(238, 243, 246)" stroke="rgb(115, 161, 191)" d="M744.5,139.5h62a3,3,0,0,1,3,3v20a3,3,0,0,1,-3,3h-62a3,3,0,0,1,-3,-3v-20a3,3,0,0,1,3,-3z" stroke-width="1"></path><g id="node_text7" fill="black"><text id="kity_text_155" text-rendering="inherit" font-size="14" dy=".8em" y="145.5" x="761.5">路由</text></g></g><g id="minder_node6"><g id="node_expander4" style="cursor: pointer;" display="none"><path id="kity_path_325" fill="white" stroke="gray" d="M836.5,139.5A6,6,0,1,1,824.5,139.5A6,6,0,1,1,836.5,139.5"></path><path id="kity_path_326" fill="none" stroke="gray"></path></g><path id="node_outline5" fill="none" stroke="none" d="M830.5,130.5h168a5,5,0,0,1,5,5v8a5,5,0,0,1,-5,5h-168a5,5,0,0,1,-5,-5v-8a5,5,0,0,1,5,-5z"></path><g id="node_text5" fill="black"><text id="kity_text_151" text-rendering="inherit" font-size="12" dy=".8em" y="133.5" x="830.5">可以根据请求的地址，自己封装</text></g></g><g id="minder_node7"><g id="node_expander5" style="cursor: pointer;" display="none"><path id="kity_path_328" fill="white" stroke="gray" d="M836.5,165.5A6,6,0,1,1,824.5,165.5A6,6,0,1,1,836.5,165.5"></path><path id="kity_path_329" fill="none" stroke="gray"></path></g><path id="node_outline6" fill="none" stroke="none" d="M830.5,156.5h161a5,5,0,0,1,5,5v8a5,5,0,0,1,-5,5h-161a5,5,0,0,1,-5,-5v-8a5,5,0,0,1,5,-5z"></path><g id="node_text6" fill="black"><text id="kity_text_153" text-rendering="inherit" font-size="12" dy=".8em" y="159.5" x="830.5">推荐使用koa-router@7中间件</text></g></g><g id="minder_node8"><g id="node_expander13" style="cursor: pointer;"><path id="kity_path_352" fill="white" stroke="gray" d="M740.5,238.5A6,6,0,1,1,728.5,238.5A6,6,0,1,1,740.5,238.5"></path><path id="kity_path_353" fill="none" stroke="gray" d="M730,238.5L739,238.5"></path></g><path id="node_outline14" fill="rgb(238, 243, 246)" stroke="rgb(115, 161, 191)" d="M744.5,225.5h90a3,3,0,0,1,3,3v20a3,3,0,0,1,-3,3h-90a3,3,0,0,1,-3,-3v-20a3,3,0,0,1,3,-3z" stroke-width="1"></path><g id="node_text14" fill="black"><text id="kity_text_169" text-rendering="inherit" font-size="14" dy=".8em" y="231.5" x="761.5">数据请求</text></g></g><g id="minder_node9"><g id="node_expander9" style="cursor: pointer;"><path id="kity_path_340" fill="white" stroke="gray" d="M853.5,212.5A6,6,0,1,1,841.5,212.5A6,6,0,1,1,853.5,212.5"></path><path id="kity_path_341" fill="none" stroke="gray" d="M843,212.5L852,212.5"></path></g><path id="node_outline10" fill="none" stroke="none" d="M858.5,203.5h20a5,5,0,0,1,5,5v8a5,5,0,0,1,-5,5h-20a5,5,0,0,1,-5,-5v-8a5,5,0,0,1,5,-5z"></path><g id="node_text10" fill="black"><text id="kity_text_161" text-rendering="inherit" font-size="12" dy=".8em" y="206.5" x="858.5">get</text></g></g><g id="minder_node10"><g id="node_expander7" style="cursor: pointer;" display="none"><path id="kity_path_334" fill="white" stroke="gray" d="M910.5,199.5A6,6,0,1,1,898.5,199.5A6,6,0,1,1,910.5,199.5"></path><path id="kity_path_335" fill="none" stroke="gray"></path></g><path id="node_outline8" fill="none" stroke="none" d="M904.5,190.5h54a5,5,0,0,1,5,5v8a5,5,0,0,1,-5,5h-54a5,5,0,0,1,-5,-5v-8a5,5,0,0,1,5,-5z"></path><g id="node_text8" fill="black"><text id="kity_text_157" text-rendering="inherit" font-size="12" dy=".8em" y="193.5" x="904.5">ctx.query</text></g></g><g id="minder_node11"><g id="node_expander8" style="cursor: pointer;" display="none"><path id="kity_path_337" fill="white" stroke="gray" d="M910.5,225.5A6,6,0,1,1,898.5,225.5A6,6,0,1,1,910.5,225.5"></path><path id="kity_path_338" fill="none" stroke="gray"></path></g><path id="node_outline9" fill="none" stroke="none" d="M904.5,216.5h101a5,5,0,0,1,5,5v8a5,5,0,0,1,-5,5h-101a5,5,0,0,1,-5,-5v-8a5,5,0,0,1,5,-5z"></path><g id="node_text9" fill="black"><text id="kity_text_159" text-rendering="inherit" font-size="12" dy=".8em" y="219.5" x="904.5">ctx.request.query</text></g></g><g id="minder_node12"><g id="node_expander12" style="cursor: pointer;"><path id="kity_path_349" fill="white" stroke="gray" d="M853.5,264.5A6,6,0,1,1,841.5,264.5A6,6,0,1,1,853.5,264.5"></path><path id="kity_path_350" fill="none" stroke="gray" d="M843,264.5L852,264.5"></path></g><path id="node_outline13" fill="none" stroke="none" d="M858.5,255.5h25a5,5,0,0,1,5,5v8a5,5,0,0,1,-5,5h-25a5,5,0,0,1,-5,-5v-8a5,5,0,0,1,5,-5z"></path><g id="node_text13" fill="black"><text id="kity_text_167" text-rendering="inherit" font-size="12" dy=".8em" y="258.5" x="858.5">post</text></g></g><g id="minder_node13"><g id="node_expander10" style="cursor: pointer;" display="none"><path id="kity_path_343" fill="white" stroke="gray" d="M915.5,251.5A6,6,0,1,1,903.5,251.5A6,6,0,1,1,915.5,251.5"></path><path id="kity_path_344" fill="none" stroke="gray"></path></g><path id="node_outline11" fill="none" stroke="none" d="M909.5,242.5h288a5,5,0,0,1,5,5v8a5,5,0,0,1,-5,5h-288a5,5,0,0,1,-5,-5v-8a5,5,0,0,1,5,-5z"></path><g id="node_text11" fill="black"><text id="kity_text_163" text-rendering="inherit" font-size="12" dy=".8em" y="245.5" x="909.5">不用中间件的话，需要自己监听接收完数据，自己解析</text></g></g><g id="minder_node14"><g id="node_expander11" style="cursor: pointer;" display="none"><path id="kity_path_346" fill="white" stroke="gray" d="M915.5,277.5A6,6,0,1,1,903.5,277.5A6,6,0,1,1,915.5,277.5"></path><path id="kity_path_347" fill="none" stroke="gray"></path></g><path id="node_outline12" fill="none" stroke="none" d="M909.5,268.5h197a5,5,0,0,1,5,5v8a5,5,0,0,1,-5,5h-197a5,5,0,0,1,-5,-5v-8a5,5,0,0,1,5,-5z"></path><g id="node_text12" fill="black"><text id="kity_text_165" text-rendering="inherit" font-size="12" dy=".8em" y="271.5" x="909.5">推荐使用koa-bodyparser@3 中间件</text></g></g><g id="minder_node15"><g id="node_expander16" style="cursor: pointer;"><path id="kity_path_361" fill="white" stroke="gray" d="M740.5,324.5A6,6,0,1,1,728.5,324.5A6,6,0,1,1,740.5,324.5"></path><path id="kity_path_362" fill="none" stroke="gray" d="M730,324.5L739,324.5"></path></g><path id="node_outline17" fill="rgb(238, 243, 246)" stroke="rgb(115, 161, 191)" d="M744.5,311.5h90a3,3,0,0,1,3,3v20a3,3,0,0,1,-3,3h-90a3,3,0,0,1,-3,-3v-20a3,3,0,0,1,3,-3z" stroke-width="1"></path><g id="node_text17" fill="black"><text id="kity_text_175" text-rendering="inherit" font-size="14" dy=".8em" y="317.5" x="761.5">静态资源</text></g></g><g id="minder_node16"><g id="node_expander14" style="cursor: pointer;" display="none"><path id="kity_path_355" fill="white" stroke="gray" d="M864.5,311.5A6,6,0,1,1,852.5,311.5A6,6,0,1,1,864.5,311.5"></path><path id="kity_path_356" fill="none" stroke="gray"></path></g><path id="node_outline15" fill="none" stroke="none" d="M858.5,302.5h255a5,5,0,0,1,5,5v8a5,5,0,0,1,-5,5h-255a5,5,0,0,1,-5,-5v-8a5,5,0,0,1,5,-5z"></path><g id="node_text15" fill="black"><text id="kity_text_171" text-rendering="inherit" font-size="12" dy=".8em" y="305.5" x="858.5">自己写的话，需要判断文件类型，读取， 并渲染</text></g></g><g id="minder_node17"><g id="node_expander15" style="cursor: pointer;" display="none"><path id="kity_path_358" fill="white" stroke="gray" d="M864.5,337.5A6,6,0,1,1,852.5,337.5A6,6,0,1,1,864.5,337.5"></path><path id="kity_path_359" fill="none" stroke="gray"></path></g><path id="node_outline16" fill="none" stroke="none" d="M858.5,328.5h177a5,5,0,0,1,5,5v8a5,5,0,0,1,-5,5h-177a5,5,0,0,1,-5,-5v-8a5,5,0,0,1,5,-5z"></path><g id="node_text16" fill="black"><text id="kity_text_173" text-rendering="inherit" font-size="12" dy=".8em" y="331.5" x="858.5">使用koa-static中间件就很简单了</text></g></g><g id="minder_node18"><g id="node_expander19" style="cursor: pointer;"><path id="kity_path_370" fill="white" stroke="gray" d="M740.5,384.5A6,6,0,1,1,728.5,384.5A6,6,0,1,1,740.5,384.5"></path><path id="kity_path_371" fill="none" stroke="gray" d="M730,384.5L739,384.5"></path></g><path id="node_outline20" fill="rgb(238, 243, 246)" stroke="rgb(115, 161, 191)" d="M744.5,371.5h80a3,3,0,0,1,3,3v20a3,3,0,0,1,-3,3h-80a3,3,0,0,1,-3,-3v-20a3,3,0,0,1,3,-3z" stroke-width="1"></path><g id="node_text20" fill="black"><text id="kity_text_181" text-rendering="inherit" font-size="14" dy=".8em" y="377.5" x="761.5">cookie</text></g></g><g id="minder_node19"><g id="node_expander17" style="cursor: pointer;" display="none"><path id="kity_path_364" fill="white" stroke="gray" d="M854.5,371.5A6,6,0,1,1,842.5,371.5A6,6,0,1,1,854.5,371.5"></path><path id="kity_path_365" fill="none" stroke="gray"></path></g><path id="node_outline18" fill="none" stroke="none" d="M848.5,362.5h340a5,5,0,0,1,5,5v8a5,5,0,0,1,-5,5h-340a5,5,0,0,1,-5,-5v-8a5,5,0,0,1,5,-5z"></path><g id="node_text18" fill="black"><text id="kity_text_177" text-rendering="inherit" font-size="12" dy=".8em" y="365.5" x="848.5">ctx.cookies.get(name, [options]) 读取上下文请求中的cookie</text></g></g><g id="minder_node20"><g id="node_expander18" style="cursor: pointer;" display="none"><path id="kity_path_367" fill="white" stroke="gray" d="M854.5,397.5A6,6,0,1,1,842.5,397.5A6,6,0,1,1,854.5,397.5"></path><path id="kity_path_368" fill="none" stroke="gray"></path></g><path id="node_outline19" fill="none" stroke="none" d="M848.5,388.5h351a5,5,0,0,1,5,5v8a5,5,0,0,1,-5,5h-351a5,5,0,0,1,-5,-5v-8a5,5,0,0,1,5,-5z"></path><g id="node_text19" fill="black"><text id="kity_text_179" text-rendering="inherit" font-size="12" dy=".8em" y="391.5" x="848.5">ctx.cookies.set(name, value, [options]) 在上下文中写入cookie</text></g></g><g id="minder_node21"><g id="node_expander21" style="cursor: pointer;"><path id="kity_path_376" fill="white" stroke="gray" d="M740.5,435.5A6,6,0,1,1,728.5,435.5A6,6,0,1,1,740.5,435.5"></path><path id="kity_path_377" fill="none" stroke="gray" d="M730,435.5L739,435.5"></path></g><path id="node_outline22" fill="rgb(238, 243, 246)" stroke="rgb(115, 161, 191)" d="M744.5,422.5h80a3,3,0,0,1,3,3v20a3,3,0,0,1,-3,3h-80a3,3,0,0,1,-3,-3v-20a3,3,0,0,1,3,-3z" stroke-width="1"></path><g id="node_text22" fill="black"><text id="kity_text_185" text-rendering="inherit" font-size="14" dy=".8em" y="428.5" x="761.5">session</text></g></g><g id="minder_node22"><g id="node_expander20" style="cursor: pointer;" display="none"><path id="kity_path_373" fill="white" stroke="gray" d="M854.5,435.5A6,6,0,1,1,842.5,435.5A6,6,0,1,1,854.5,435.5"></path><path id="kity_path_374" fill="none" stroke="gray"></path></g><path id="node_outline21" fill="none" stroke="none" d="M848.5,426.5h274a5,5,0,0,1,5,5v8a5,5,0,0,1,-5,5h-274a5,5,0,0,1,-5,-5v-8a5,5,0,0,1,5,-5z"></path><g id="node_text21" fill="black"><text id="kity_text_183" text-rendering="inherit" font-size="12" dy=".8em" y="429.5" x="848.5">需要使用koa-session-minimal中间件来读写session</text></g></g><g id="minder_node23"><g id="node_expander24" style="cursor: pointer;"><path id="kity_path_385" fill="white" stroke="gray" d="M740.5,486.5A6,6,0,1,1,728.5,486.5A6,6,0,1,1,740.5,486.5"></path><path id="kity_path_386" fill="none" stroke="gray" d="M730,486.5L739,486.5"></path></g><path id="node_outline25" fill="rgb(238, 243, 246)" stroke="rgb(115, 161, 191)" d="M744.5,473.5h90a3,3,0,0,1,3,3v20a3,3,0,0,1,-3,3h-90a3,3,0,0,1,-3,-3v-20a3,3,0,0,1,3,-3z" stroke-width="1"></path><g id="node_text25" fill="black"><text id="kity_text_191" text-rendering="inherit" font-size="14" dy=".8em" y="479.5" x="761.5">模板引擎</text></g></g><g id="minder_node24"><g id="node_expander22" style="cursor: pointer;" display="none"><path id="kity_path_379" fill="white" stroke="gray" d="M864.5,473.5A6,6,0,1,1,852.5,473.5A6,6,0,1,1,864.5,473.5"></path><path id="kity_path_380" fill="none" stroke="gray"></path></g><path id="node_outline23" fill="none" stroke="none" d="M858.5,464.5h118a5,5,0,0,1,5,5v8a5,5,0,0,1,-5,5h-118a5,5,0,0,1,-5,-5v-8a5,5,0,0,1,5,-5z"></path><g id="node_text23" fill="black"><text id="kity_text_187" text-rendering="inherit" font-size="12" dy=".8em" y="467.5" x="858.5">使用koa-views中间件</text></g></g><g id="minder_node25"><g id="node_expander23" style="cursor: pointer;" display="none"><path id="kity_path_382" fill="white" stroke="gray" d="M864.5,499.5A6,6,0,1,1,852.5,499.5A6,6,0,1,1,864.5,499.5"></path><path id="kity_path_383" fill="none" stroke="gray"></path></g><path id="node_outline24" fill="none" stroke="none" d="M858.5,490.5h192a5,5,0,0,1,5,5v8a5,5,0,0,1,-5,5h-192a5,5,0,0,1,-5,-5v-8a5,5,0,0,1,5,-5z"></path><g id="node_text24" fill="black"><text id="kity_text_189" text-rendering="inherit" font-size="12" dy=".8em" y="493.5" x="858.5">具体的模板引擎，自己随便用就行了</text></g></g><g id="minder_node26"><g id="node_expander26" style="cursor: pointer;"><path id="kity_path_391" fill="white" stroke="gray" d="M740.5,537.5A6,6,0,1,1,728.5,537.5A6,6,0,1,1,740.5,537.5"></path><path id="kity_path_392" fill="none" stroke="gray" d="M730,537.5L739,537.5"></path></g><path id="node_outline27" fill="rgb(238, 243, 246)" stroke="rgb(115, 161, 191)" d="M744.5,524.5h90a3,3,0,0,1,3,3v20a3,3,0,0,1,-3,3h-90a3,3,0,0,1,-3,-3v-20a3,3,0,0,1,3,-3z" stroke-width="1"></path><g id="node_text27" fill="black"><text id="kity_text_195" text-rendering="inherit" font-size="14" dy=".8em" y="530.5" x="761.5">文件上传</text></g></g><g id="minder_node27"><g id="node_expander25" style="cursor: pointer;" display="none"><path id="kity_path_388" fill="white" stroke="gray" d="M864.5,537.5A6,6,0,1,1,852.5,537.5A6,6,0,1,1,864.5,537.5"></path><path id="kity_path_389" fill="none" stroke="gray"></path></g><path id="node_outline26" fill="none" stroke="none" d="M858.5,528.5h350a5,5,0,0,1,5,5v8a5,5,0,0,1,-5,5h-350a5,5,0,0,1,-5,-5v-8a5,5,0,0,1,5,-5z"></path><g id="node_text26" fill="black"><text id="kity_text_193" text-rendering="inherit" font-size="12" dy=".8em" y="531.5" x="858.5">安装busboy，是用来解析POST请求，node原生req中的文件流。</text></g></g><g id="minder_node28"><g id="node_expander29" style="cursor: pointer;"><path id="kity_path_400" fill="white" stroke="gray" d="M656.5,42.5A6,6,0,1,1,644.5,42.5A6,6,0,1,1,656.5,42.5"></path><path id="kity_path_401" fill="none" stroke="gray" d="M646,42.5L655,42.5"></path></g><path id="node_outline30" fill="rgb(238, 243, 246)" stroke="rgb(115, 161, 191)" d="M570.5,29.5h70a3,3,0,0,1,3,3v20a3,3,0,0,1,-3,3h-70a3,3,0,0,1,-3,-3v-20a3,3,0,0,1,3,-3z" stroke-width="1"></path><g id="node_text30" fill="black"><text id="kity_text_201" text-rendering="inherit" font-size="14" dy=".8em" y="35.5" x="587.5">jsonp</text></g></g><g id="minder_node29"><g id="node_expander27" style="cursor: pointer;" display="none"><path id="kity_path_394" fill="white" stroke="gray" d="M241.5,29.5A6,6,0,1,1,229.5,29.5A6,6,0,1,1,241.5,29.5"></path><path id="kity_path_395" fill="none" stroke="gray"></path></g><path id="node_outline28" fill="none" stroke="none" d="M235.5,20.5h311a5,5,0,0,1,5,5v8a5,5,0,0,1,-5,5h-311a5,5,0,0,1,-5,-5v-8a5,5,0,0,1,5,-5z"></path><g id="node_text28" fill="black"><text id="kity_text_197" text-rendering="inherit" font-size="12" dy=".8em" y="23.5" x="235.5">可以自己封装jsonp请求，输出ctx.type = 'text/javascript'</text></g></g><g id="minder_node30"><g id="node_expander28" style="cursor: pointer;" display="none"><path id="kity_path_397" fill="white" stroke="gray" d="M217.5,55.5A6,6,0,1,1,205.5,55.5A6,6,0,1,1,217.5,55.5"></path><path id="kity_path_398" fill="none" stroke="gray"></path></g><path id="node_outline29" fill="none" stroke="none" d="M211.5,46.5h335a5,5,0,0,1,5,5v8a5,5,0,0,1,-5,5h-335a5,5,0,0,1,-5,-5v-8a5,5,0,0,1,5,-5z"></path><g id="node_text29" fill="black"><text id="kity_text_199" text-rendering="inherit" font-size="12" dy=".8em" y="49.5" x="211.5">koa-jsonp中间件很简单，可以把所有get请求的，都加上jsonp</text></g></g><g id="minder_node31"><g id="node_expander31" style="cursor: pointer;"><path id="kity_path_406" fill="white" stroke="gray" d="M656.5,93.5A6,6,0,1,1,644.5,93.5A6,6,0,1,1,656.5,93.5"></path><path id="kity_path_407" fill="none" stroke="gray" d="M646,93.5L655,93.5"></path></g><path id="node_outline32" fill="rgb(238, 243, 246)" stroke="rgb(115, 161, 191)" d="M568.5,80.5h72a3,3,0,0,1,3,3v20a3,3,0,0,1,-3,3h-72a3,3,0,0,1,-3,-3v-20a3,3,0,0,1,3,-3z" stroke-width="1"></path><g id="node_text32" fill="black"><text id="kity_text_205" text-rendering="inherit" font-size="14" dy=".8em" y="86.5" x="585.5">mysql</text></g></g><g id="minder_node32"><g id="node_expander30" style="cursor: pointer;" display="none"><path id="kity_path_403" fill="white" stroke="gray" d="M323.5,93.5A6,6,0,1,1,311.5,93.5A6,6,0,1,1,323.5,93.5"></path><path id="kity_path_404" fill="none" stroke="gray"></path></g><path id="node_outline31" fill="none" stroke="none" d="M317.5,84.5h227a5,5,0,0,1,5,5v8a5,5,0,0,1,-5,5h-227a5,5,0,0,1,-5,-5v-8a5,5,0,0,1,5,-5z"></path><g id="node_text31" fill="black"><text id="kity_text_203" text-rendering="inherit" font-size="12" dy=".8em" y="87.5" x="317.5">可以连接 mysql，通过nodejs的mysql模块</text></g></g><g id="minder_node33"><g id="node_expander33" style="cursor: pointer;"><path id="kity_path_412" fill="white" stroke="gray" d="M656.5,135.5A6,6,0,1,1,644.5,135.5A6,6,0,1,1,656.5,135.5"></path><path id="kity_path_413" fill="none" stroke="gray" d="M646,135.5L655,135.5"></path></g><path id="node_outline34" fill="rgb(238, 243, 246)" stroke="rgb(115, 161, 191)" d="M538.5,122.5h102a3,3,0,0,1,3,3v20a3,3,0,0,1,-3,3h-102a3,3,0,0,1,-3,-3v-20a3,3,0,0,1,3,-3z" stroke-width="1"></path><g id="node_text34" fill="black"><text id="kity_text_209" text-rendering="inherit" font-size="14" dy=".8em" y="128.5" x="555.5">mongoDB</text></g></g><g id="minder_node34"><g id="node_expander32" style="cursor: pointer;" display="none"><path id="kity_path_409" fill="white" stroke="gray" d="M351.5,135.5A6,6,0,1,1,339.5,135.5A6,6,0,1,1,351.5,135.5"></path><path id="kity_path_410" fill="none" stroke="gray"></path></g><path id="node_outline33" fill="none" stroke="none" d="M345.5,126.5h169a5,5,0,0,1,5,5v8a5,5,0,0,1,-5,5h-169a5,5,0,0,1,-5,-5v-8a5,5,0,0,1,5,-5z"></path><g id="node_text33" fill="black"><text id="kity_text_207" text-rendering="inherit" font-size="12" dy=".8em" y="129.5" x="345.5">通过mongoose连接mongoDB</text></g></g><g id="minder_node35"><g id="node_expander37" style="cursor: pointer;"><path id="kity_path_424" fill="white" stroke="gray" d="M656.5,199.5A6,6,0,1,1,644.5,199.5A6,6,0,1,1,656.5,199.5"></path><path id="kity_path_425" fill="none" stroke="gray" d="M646,199.5L655,199.5"></path></g><path id="node_outline38" fill="rgb(238, 243, 246)" stroke="rgb(115, 161, 191)" d="M550.5,186.5h90a3,3,0,0,1,3,3v20a3,3,0,0,1,-3,3h-90a3,3,0,0,1,-3,-3v-20a3,3,0,0,1,3,-3z" stroke-width="1"></path><g id="node_text38" fill="black"><text id="kity_text_217" text-rendering="inherit" font-size="14" dy=".8em" y="192.5" x="567.5">单元测试</text></g></g><g id="minder_node36"><g id="node_expander34" style="cursor: pointer;" display="none"><path id="kity_path_415" fill="white" stroke="gray" d="M439.5,173.5A6,6,0,1,1,427.5,173.5A6,6,0,1,1,439.5,173.5"></path><path id="kity_path_416" fill="none" stroke="gray"></path></g><path id="node_outline35" fill="none" stroke="none" d="M433.5,164.5h93a5,5,0,0,1,5,5v8a5,5,0,0,1,-5,5h-93a5,5,0,0,1,-5,-5v-8a5,5,0,0,1,5,-5z"></path><g id="node_text35" fill="black"><text id="kity_text_211" text-rendering="inherit" font-size="12" dy=".8em" y="167.5" x="433.5">mocha 测试框架</text></g></g><g id="minder_node37"><g id="node_expander35" style="cursor: pointer;" display="none"><path id="kity_path_418" fill="white" stroke="gray" d="M347.5,199.5A6,6,0,1,1,335.5,199.5A6,6,0,1,1,347.5,199.5"></path><path id="kity_path_419" fill="none" stroke="gray"></path></g><path id="node_outline36" fill="none" stroke="none" d="M341.5,190.5h185a5,5,0,0,1,5,5v8a5,5,0,0,1,-5,5h-185a5,5,0,0,1,-5,-5v-8a5,5,0,0,1,5,-5z"></path><g id="node_text36" fill="black"><text id="kity_text_213" text-rendering="inherit" font-size="12" dy=".8em" y="193.5" x="341.5">chai 模块用来进行测试结果断言库</text></g></g><g id="minder_node38"><g id="node_expander36" style="cursor: pointer;" display="none"><path id="kity_path_421" fill="white" stroke="gray" d="M255.5,225.5A6,6,0,1,1,243.5,225.5A6,6,0,1,1,255.5,225.5"></path><path id="kity_path_422" fill="none" stroke="gray"></path></g><path id="node_outline37" fill="none" stroke="none" d="M249.5,216.5h277a5,5,0,0,1,5,5v8a5,5,0,0,1,-5,5h-277a5,5,0,0,1,-5,-5v-8a5,5,0,0,1,5,-5z"></path><g id="node_text37" fill="black"><text id="kity_text_215" text-rendering="inherit" font-size="12" dy=".8em" y="219.5" x="249.5">supertest 模块是http请求测试库，用来请求API接口</text></g></g><g id="minder_node39"><g id="node_expander40" style="cursor: pointer;"><path id="kity_path_433" fill="white" stroke="gray" d="M656.5,272.5A6,6,0,1,1,644.5,272.5A6,6,0,1,1,656.5,272.5"></path><path id="kity_path_434" fill="none" stroke="gray" d="M646,272.5L655,272.5"></path></g><path id="node_outline41" fill="rgb(238, 243, 246)" stroke="rgb(115, 161, 191)" d="M532.5,259.5h108a3,3,0,0,1,3,3v20a3,3,0,0,1,-3,3h-108a3,3,0,0,1,-3,-3v-20a3,3,0,0,1,3,-3z" stroke-width="1"></path><g id="node_text41" fill="black"><text id="kity_text_223" text-rendering="inherit" font-size="14" dy=".8em" y="265.5" x="549.5">开发debug</text></g></g><g id="minder_node40"><g id="node_expander38" style="cursor: pointer;" display="none"><path id="kity_path_427" fill="white" stroke="gray" d="M393.5,259.5A6,6,0,1,1,381.5,259.5A6,6,0,1,1,393.5,259.5"></path><path id="kity_path_428" fill="none" stroke="gray"></path></g><path id="node_outline39" fill="none" stroke="none" d="M387.5,250.5h121a5,5,0,0,1,5,5v8a5,5,0,0,1,-5,5h-121a5,5,0,0,1,-5,-5v-8a5,5,0,0,1,5,-5z"></path><g id="node_text39" fill="black"><text id="kity_text_219" text-rendering="inherit" font-size="12" dy=".8em" y="253.5" x="387.5">chrome控制台debug</text></g></g><g id="minder_node41"><g id="node_expander39" style="cursor: pointer;" display="none"><path id="kity_path_430" fill="white" stroke="gray" d="M312.5,285.5A6,6,0,1,1,300.5,285.5A6,6,0,1,1,312.5,285.5"></path><path id="kity_path_431" fill="none" stroke="gray"></path></g><path id="node_outline40" fill="none" stroke="none" d="M306.5,276.5h202a5,5,0,0,1,5,5v8a5,5,0,0,1,-5,5h-202a5,5,0,0,1,-5,-5v-8a5,5,0,0,1,5,-5z"></path><g id="node_text40" fill="black"><text id="kity_text_221" text-rendering="inherit" font-size="12" dy=".8em" y="279.5" x="306.5">node --debug-brk --inspect index.js</text></g></g><g id="minder_node42"><g id="node_expander53" style="cursor: pointer;"><path id="kity_path_472" fill="white" stroke="gray" d="M656.5,462.5A6,6,0,1,1,644.5,462.5A6,6,0,1,1,656.5,462.5"></path><path id="kity_path_473" fill="none" stroke="gray" d="M646,462.5L655,462.5"></path></g><path id="node_outline54" fill="rgb(238, 243, 246)" stroke="rgb(115, 161, 191)" d="M550.5,449.5h90a3,3,0,0,1,3,3v20a3,3,0,0,1,-3,3h-90a3,3,0,0,1,-3,-3v-20a3,3,0,0,1,3,-3z" stroke-width="1"></path><g id="node_text54" fill="black"><text id="kity_text_249" text-rendering="inherit" font-size="14" dy=".8em" y="455.5" x="567.5">项目结构</text></g></g><g id="minder_node43"><g id="node_expander48" style="cursor: pointer;"><path id="kity_path_457" fill="white" stroke="gray" d="M543.5,397.5A6,6,0,1,1,531.5,397.5A6,6,0,1,1,543.5,397.5"></path><path id="kity_path_458" fill="none" stroke="gray" d="M533,397.5L542,397.5"></path></g><path id="node_outline49" fill="none" stroke="none" d="M492.5,388.5h34a5,5,0,0,1,5,5v8a5,5,0,0,1,-5,5h-34a5,5,0,0,1,-5,-5v-8a5,5,0,0,1,5,-5z"></path><g id="node_text49" fill="black"><text id="kity_text_239" text-rendering="inherit" font-size="12" dy=".8em" y="391.5" x="492.5">server</text></g></g><g id="minder_node44"><g id="node_expander41" style="cursor: pointer;" display="none"><path id="kity_path_436" fill="white" stroke="gray" d="M326.5,319.5A6,6,0,1,1,314.5,319.5A6,6,0,1,1,326.5,319.5"></path><path id="kity_path_437" fill="none" stroke="gray"></path></g><path id="node_outline42" fill="none" stroke="none" d="M320.5,310.5h146a5,5,0,0,1,5,5v8a5,5,0,0,1,-5,5h-146a5,5,0,0,1,-5,-5v-8a5,5,0,0,1,5,-5z"></path><g id="node_text42" fill="black"><text id="kity_text_225" text-rendering="inherit" font-size="12" dy=".8em" y="313.5" x="320.5">app.js # 后端服务入口文件</text></g></g><g id="minder_node45"><g id="node_expander42" style="cursor: pointer;" display="none"><path id="kity_path_439" fill="white" stroke="gray" d="M333.5,345.5A6,6,0,1,1,321.5,345.5A6,6,0,1,1,333.5,345.5"></path><path id="kity_path_440" fill="none" stroke="gray"></path></g><path id="node_outline43" fill="none" stroke="none" d="M327.5,336.5h139a5,5,0,0,1,5,5v8a5,5,0,0,1,-5,5h-139a5,5,0,0,1,-5,-5v-8a5,5,0,0,1,5,-5z"></path><g id="node_text43" fill="black"><text id="kity_text_227" text-rendering="inherit" font-size="12" dy=".8em" y="339.5" x="327.5">controllers/    # 操作层目录</text></g></g><g id="minder_node46"><g id="node_expander43" style="cursor: pointer;" display="none"><path id="kity_path_442" fill="white" stroke="gray" d="M288.5,371.5A6,6,0,1,1,276.5,371.5A6,6,0,1,1,288.5,371.5"></path><path id="kity_path_443" fill="none" stroke="gray"></path></g><path id="node_outline44" fill="none" stroke="none" d="M282.5,362.5h184a5,5,0,0,1,5,5v8a5,5,0,0,1,-5,5h-184a5,5,0,0,1,-5,-5v-8a5,5,0,0,1,5,-5z"></path><g id="node_text44" fill="black"><text id="kity_text_229" text-rendering="inherit" font-size="12" dy=".8em" y="365.5" x="282.5">models/ # 数据模型model层目录</text></g></g><g id="minder_node47"><g id="node_expander44" style="cursor: pointer;" display="none"><path id="kity_path_445" fill="white" stroke="gray" d="M365.5,397.5A6,6,0,1,1,353.5,397.5A6,6,0,1,1,365.5,397.5"></path><path id="kity_path_446" fill="none" stroke="gray"></path></g><path id="node_outline45" fill="none" stroke="none" d="M359.5,388.5h107a5,5,0,0,1,5,5v8a5,5,0,0,1,-5,5h-107a5,5,0,0,1,-5,-5v-8a5,5,0,0,1,5,-5z"></path><g id="node_text45" fill="black"><text id="kity_text_231" text-rendering="inherit" font-size="12" dy=".8em" y="391.5" x="359.5">routers/ # 路由目录</text></g></g><g id="minder_node48"><g id="node_expander45" style="cursor: pointer;" display="none"><path id="kity_path_448" fill="white" stroke="gray" d="M347.5,423.5A6,6,0,1,1,335.5,423.5A6,6,0,1,1,347.5,423.5"></path><path id="kity_path_449" fill="none" stroke="gray"></path></g><path id="node_outline46" fill="none" stroke="none" d="M341.5,414.5h125a5,5,0,0,1,5,5v8a5,5,0,0,1,-5,5h-125a5,5,0,0,1,-5,-5v-8a5,5,0,0,1,5,-5z"></path><g id="node_text46" fill="black"><text id="kity_text_233" text-rendering="inherit" font-size="12" dy=".8em" y="417.5" x="341.5">services/   # 业务层目录</text></g></g><g id="minder_node49"><g id="node_expander46" style="cursor: pointer;" display="none"><path id="kity_path_451" fill="white" stroke="gray" d="M371.5,449.5A6,6,0,1,1,359.5,449.5A6,6,0,1,1,371.5,449.5"></path><path id="kity_path_452" fill="none" stroke="gray"></path></g><path id="node_outline47" fill="none" stroke="none" d="M365.5,440.5h101a5,5,0,0,1,5,5v8a5,5,0,0,1,-5,5h-101a5,5,0,0,1,-5,-5v-8a5,5,0,0,1,5,-5z"></path><g id="node_text47" fill="black"><text id="kity_text_235" text-rendering="inherit" font-size="12" dy=".8em" y="443.5" x="365.5">utils/  # 工具类目录</text></g></g><g id="minder_node50"><g id="node_expander47" style="cursor: pointer;" display="none"><path id="kity_path_454" fill="white" stroke="gray" d="M373.5,475.5A6,6,0,1,1,361.5,475.5A6,6,0,1,1,373.5,475.5"></path><path id="kity_path_455" fill="none" stroke="gray"></path></g><path id="node_outline48" fill="none" stroke="none" d="M367.5,466.5h99a5,5,0,0,1,5,5v8a5,5,0,0,1,-5,5h-99a5,5,0,0,1,-5,-5v-8a5,5,0,0,1,5,-5z"></path><g id="node_text48" fill="black"><text id="kity_text_237" text-rendering="inherit" font-size="12" dy=".8em" y="469.5" x="367.5">views/  # 模板目录</text></g></g><g id="minder_node51"><g id="node_expander51" style="cursor: pointer;"><path id="kity_path_466" fill="white" stroke="gray" d="M543.5,501.5A6,6,0,1,1,531.5,501.5A6,6,0,1,1,543.5,501.5"></path><path id="kity_path_467" fill="none" stroke="gray" d="M533,501.5L542,501.5"></path></g><path id="node_outline52" fill="none" stroke="none" d="M495.5,492.5h31a5,5,0,0,1,5,5v8a5,5,0,0,1,-5,5h-31a5,5,0,0,1,-5,-5v-8a5,5,0,0,1,5,-5z"></path><g id="node_text52" fill="black"><text id="kity_text_245" text-rendering="inherit" font-size="12" dy=".8em" y="495.5" x="495.5">static</text></g></g><g id="minder_node52"><g id="node_expander50" style="cursor: pointer;"><path id="kity_path_463" fill="white" stroke="gray" d="M486.5,501.5A6,6,0,1,1,474.5,501.5A6,6,0,1,1,486.5,501.5"></path><path id="kity_path_464" fill="none" stroke="gray" d="M476,501.5L485,501.5"></path></g><path id="node_outline51" fill="none" stroke="none" d="M301.5,492.5h168a5,5,0,0,1,5,5v8a5,5,0,0,1,-5,5h-168a5,5,0,0,1,-5,-5v-8a5,5,0,0,1,5,-5z"></path><g id="node_text51" fill="black"><text id="kity_text_243" text-rendering="inherit" font-size="12" dy=".8em" y="495.5" x="301.5">index.html/jQuery.js/main.css</text></g></g><g id="minder_node53"><g id="node_expander49" style="cursor: pointer;" display="none"><path id="kity_path_460" fill="white" stroke="gray" d="M31.5,501.5A6,6,0,1,1,19.5,501.5A6,6,0,1,1,31.5,501.5"></path><path id="kity_path_461" fill="none" stroke="gray"></path></g><path id="node_outline50" fill="none" stroke="none" d="M25.5,492.5h250a5,5,0,0,1,5,5v8a5,5,0,0,1,-5,5h-250a5,5,0,0,1,-5,-5v-8a5,5,0,0,1,5,-5z"></path><g id="node_text50" fill="black"><text id="kity_text_241" text-rendering="inherit" font-size="12" dy=".8em" y="495.5" x="25.5">静态文件存放地址通过localhost:3030访问就行</text></g></g><g id="minder_node54"><g id="node_expander52" style="cursor: pointer;" display="none"><path id="kity_path_469" fill="white" stroke="gray" d="M422.5,527.5A6,6,0,1,1,410.5,527.5A6,6,0,1,1,422.5,527.5"></path><path id="kity_path_470" fill="none" stroke="gray"></path></g><path id="node_outline53" fill="none" stroke="none" d="M416.5,518.5h110a5,5,0,0,1,5,5v8a5,5,0,0,1,-5,5h-110a5,5,0,0,1,-5,-5v-8a5,5,0,0,1,5,-5z"></path><g id="node_text53" fill="black"><text id="kity_text_247" text-rendering="inherit" font-size="12" dy=".8em" y="521.5" x="416.5">config.js # 配置文件</text></g></g><g id="minder_node55"><g id="node_expander57" style="cursor: pointer;"><path id="kity_path_484" fill="white" stroke="gray" d="M656.5,587.5A6,6,0,1,1,644.5,587.5A6,6,0,1,1,656.5,587.5"></path><path id="kity_path_485" fill="none" stroke="gray" d="M646,587.5L655,587.5"></path></g><path id="node_outline58" fill="rgb(238, 243, 246)" stroke="rgb(115, 161, 191)" d="M457.5,574.5h183a3,3,0,0,1,3,3v20a3,3,0,0,1,-3,3h-183a3,3,0,0,1,-3,-3v-20a3,3,0,0,1,3,-3z" stroke-width="1"></path><g id="node_text58" fill="black"><text id="kity_text_257" text-rendering="inherit" font-size="14" dy=".8em" y="580.5" x="474.5">与express\ koa1.0区别</text></g></g><g id="minder_node56"><g id="node_expander54" style="cursor: pointer;" display="none"><path id="kity_path_475" fill="white" stroke="gray" d="M355.5,561.5A6,6,0,1,1,343.5,561.5A6,6,0,1,1,355.5,561.5"></path><path id="kity_path_476" fill="none" stroke="gray"></path></g><path id="node_outline55" fill="none" stroke="none" d="M349.5,552.5h84a5,5,0,0,1,5,5v8a5,5,0,0,1,-5,5h-84a5,5,0,0,1,-5,-5v-8a5,5,0,0,1,5,-5z"></path><g id="node_text55" fill="black"><text id="kity_text_251" text-rendering="inherit" font-size="12" dy=".8em" y="555.5" x="349.5">都是一拨人写的</text></g></g><g id="minder_node57"><g id="node_expander55" style="cursor: pointer;" display="none"><path id="kity_path_478" fill="white" stroke="gray" d="M154.5,587.5A6,6,0,1,1,142.5,587.5A6,6,0,1,1,154.5,587.5"></path><path id="kity_path_479" fill="none" stroke="gray"></path></g><path id="node_outline56" fill="none" stroke="none" d="M148.5,578.5h285a5,5,0,0,1,5,5v8a5,5,0,0,1,-5,5h-285a5,5,0,0,1,-5,-5v-8a5,5,0,0,1,5,-5z"></path><g id="node_text56" fill="black"><text id="kity_text_253" text-rendering="inherit" font-size="12" dy=".8em" y="581.5" x="148.5">express基于回调，1.0基于generate，2.0基于async</text></g></g><g id="minder_node58"><g id="node_expander56" style="cursor: pointer;" display="none"><path id="kity_path_481" fill="white" stroke="gray" d="M50.5,613.5A6,6,0,1,1,38.5,613.5A6,6,0,1,1,50.5,613.5"></path><path id="kity_path_482" fill="none" stroke="gray"></path></g><path id="node_outline57" fill="none" stroke="none" d="M44.5,604.5h389a5,5,0,0,1,5,5v8a5,5,0,0,1,-5,5h-389a5,5,0,0,1,-5,-5v-8a5,5,0,0,1,5,-5z"></path><g id="node_text57" fill="black"><text id="kity_text_255" text-rendering="inherit" font-size="12" dy=".8em" y="607.5" x="44.5">koa2更小巧，只提供核心的功能，其余的要么自己封装，要么使用中间件</text></g></g></g></g></svg>