<svg id="kity_svg_6" xmlns="http://www.w3.org/2000/svg" xmlns:xlink="http://www.w3.org/1999/xlink" version="1.1" width="698" height="444" style="background: rgb(251, 251, 251); visibility: visible;" viewBox="0 0 698 444"><defs id="kity_defs_7"><linearGradient id="kity_linearGradient_17" x1="0" y1="0" x2="0" y2="1"><stop id="kity_stop_18" offset="0" stop-color="rgb(255, 255, 255)"></stop><stop id="kity_stop_19" offset="1" stop-color="rgb(204, 204, 204)"></stop></linearGradient><marker id="kity_marker_2" orient="auto" refX="6" refY="0" viewBox="-7 -7 14 14" markerWidth="7" markerHeight="7" markerUnits="userSpaceOnUse"><path id="kity_path_3" fill="rgb(115, 161, 191)" stroke="none" d="M6,0A6,6,0,1,1,-6,0A6,6,0,1,1,6,0"></path></marker></defs><g id="kity_g_8"><g id="minder1" text-rendering="optimize-speed"><g id="minder_connect_group1"><path id="kity_path_31" fill="none" stroke="rgb(115, 161, 191)" stroke-width="1" d="M355.5,222.5A43,189,0,0,1,398.5,33.5"></path><path id="kity_path_33" fill="none" stroke="rgb(115, 161, 191)" stroke-width="1" d="M355.5,222.5A43,147,0,0,1,398.5,75.5"></path><path id="kity_path_35" fill="none" stroke="rgb(115, 161, 191)" stroke-width="1" d="M355.5,222.5A43,105,0,0,1,398.5,117.5"></path><path id="kity_path_37" fill="none" stroke="rgb(115, 161, 191)" stroke-width="1" d="M355.5,222.5A43,63,0,0,1,398.5,159.5"></path><path id="kity_path_39" fill="none" stroke="rgb(115, 161, 191)" stroke-width="1" d="M355.5,222.5A43,21,0,0,1,398.5,201.5"></path><path id="kity_path_41" fill="none" stroke="rgb(115, 161, 191)" stroke-width="1" d="M355.5,222.5A43,21,0,0,0,398.5,243.5"></path><path id="kity_path_43" fill="none" stroke="rgb(115, 161, 191)" stroke-width="1" d="M355.5,222.5A43,63,0,0,0,398.5,285.5"></path><path id="kity_path_45" fill="none" stroke="rgb(115, 161, 191)" stroke-width="1" d="M355.5,222.5A43,105,0,0,0,398.5,327.5"></path><path id="kity_path_47" fill="none" stroke="rgb(115, 161, 191)" stroke-width="1" d="M355.5,222.5A43,147,0,0,0,398.5,369.5"></path><path id="kity_path_49" fill="none" stroke="rgb(115, 161, 191)" stroke-width="1" d="M355.5,222.5A43,189,0,0,0,398.5,411.5"></path><path id="kity_path_51" fill="none" stroke="rgb(115, 161, 191)" stroke-width="1" d="M355.5,222.5A43,168,0,0,0,312.5,54.5"></path><path id="kity_path_53" fill="none" stroke="rgb(115, 161, 191)" stroke-width="1" d="M355.5,222.5A43,126,0,0,0,312.5,96.5"></path><path id="kity_path_55" fill="none" stroke="rgb(115, 161, 191)" stroke-width="1" d="M355.5,222.5A43,84,0,0,0,312.5,138.5"></path><path id="kity_path_57" fill="none" stroke="rgb(115, 161, 191)" stroke-width="1" d="M355.5,222.5A43,42,0,0,0,312.5,180.5"></path><path id="kity_path_59" fill="none" stroke="rgb(115, 161, 191)" stroke-width="1" d="M355.5,222.5A43,0,0,0,1,312.5,222.5"></path><path id="kity_path_61" fill="none" stroke="rgb(115, 161, 191)" stroke-width="1" d="M355.5,222.5A43,42,0,0,1,312.5,264.5"></path><path id="kity_path_63" fill="none" stroke="rgb(115, 161, 191)" stroke-width="1" d="M355.5,222.5A43,84,0,0,1,312.5,306.5"></path><path id="kity_path_65" fill="none" stroke="rgb(115, 161, 191)" stroke-width="1" d="M355.5,222.5A43,126,0,0,1,312.5,348.5"></path><path id="kity_path_67" fill="none" stroke="rgb(115, 161, 191)" stroke-width="1" d="M355.5,222.5A43,168,0,0,1,312.5,390.5"></path></g><g id="minder_node1"><path id="node_outline1" fill="rgb(115, 161, 191)" stroke="rgb(57, 80, 96)" d="M333.5,208.5h44a5,5,0,0,1,5,5v18a5,5,0,0,1,-5,5h-44a5,5,0,0,1,-5,-5v-18a5,5,0,0,1,5,-5z" stroke-width="3"></path><g id="node_text1" fill="white"><text id="kity_text_22" text-rendering="inherit" font-size="16" dy=".8em" y="214.5" x="340.5">SEO</text></g></g><g id="kity_g_12"><path id="kity_path_13" fill="none" stroke="none" d="M340.5,222.5h0v0h0z"></path></g><g id="kity_g_14"><path id="kity_path_15" fill="none" stroke="none" d="M340.5,222.5h0v0h0z"></path><path id="kity_path_16" fill="none" stroke="none"></path></g><g id="minder_node2"><g id="node_expander1" display="none" style="cursor: pointer;"><path id="kity_path_126" fill="white" stroke="gray" d="M399.5,33.5A6,6,0,1,1,387.5,33.5A6,6,0,1,1,399.5,33.5"></path><path id="kity_path_127" fill="none" stroke="gray"></path></g><path id="node_outline2" fill="rgb(238, 243, 246)" stroke="rgb(115, 161, 191)" d="M403.5,20.5h272a3,3,0,0,1,3,3v20a3,3,0,0,1,-3,3h-272a3,3,0,0,1,-3,-3v-20a3,3,0,0,1,3,-3z" stroke-width="1"></path><g id="node_text2" fill="black"><text id="kity_text_69" text-rendering="inherit" font-size="14" dy=".8em" y="26.5" x="420.5">代码直出，即右击查看源代码可以看到</text></g></g><g id="minder_node3"><g id="node_expander2" display="none" style="cursor: pointer;"><path id="kity_path_129" fill="white" stroke="gray" d="M399.5,75.5A6,6,0,1,1,387.5,75.5A6,6,0,1,1,399.5,75.5"></path><path id="kity_path_130" fill="none" stroke="gray"></path></g><path id="node_outline3" fill="rgb(238, 243, 246)" stroke="rgb(115, 161, 191)" d="M403.5,62.5h219a3,3,0,0,1,3,3v20a3,3,0,0,1,-3,3h-219a3,3,0,0,1,-3,-3v-20a3,3,0,0,1,3,-3z" stroke-width="1"></path><g id="node_text3" fill="black"><text id="kity_text_71" text-rendering="inherit" font-size="14" dy=".8em" y="68.5" x="420.5">title、description、keyword</text></g></g><g id="minder_node4"><g id="node_expander3" display="none" style="cursor: pointer;"><path id="kity_path_132" fill="white" stroke="gray" d="M399.5,117.5A6,6,0,1,1,387.5,117.5A6,6,0,1,1,399.5,117.5"></path><path id="kity_path_133" fill="none" stroke="gray"></path></g><path id="node_outline4" fill="rgb(238, 243, 246)" stroke="rgb(115, 161, 191)" d="M403.5,104.5h132a3,3,0,0,1,3,3v20a3,3,0,0,1,-3,3h-132a3,3,0,0,1,-3,-3v-20a3,3,0,0,1,3,-3z" stroke-width="1"></path><g id="node_text4" fill="black"><text id="kity_text_73" text-rendering="inherit" font-size="14" dy=".8em" y="110.5" x="420.5">注意关键字密度</text></g></g><g id="minder_node5"><g id="node_expander4" display="none" style="cursor: pointer;"><path id="kity_path_135" fill="white" stroke="gray" d="M399.5,159.5A6,6,0,1,1,387.5,159.5A6,6,0,1,1,399.5,159.5"></path><path id="kity_path_136" fill="none" stroke="gray"></path></g><path id="node_outline5" fill="rgb(238, 243, 246)" stroke="rgb(115, 161, 191)" d="M403.5,146.5h101a3,3,0,0,1,3,3v20a3,3,0,0,1,-3,3h-101a3,3,0,0,1,-3,-3v-20a3,3,0,0,1,3,-3z" stroke-width="1"></path><g id="node_text5" fill="black"><text id="kity_text_75" text-rendering="inherit" font-size="14" dy=".8em" y="152.5" x="420.5">H1-H6标签</text></g></g><g id="minder_node6"><g id="node_expander5" display="none" style="cursor: pointer;"><path id="kity_path_138" fill="white" stroke="gray" d="M399.5,201.5A6,6,0,1,1,387.5,201.5A6,6,0,1,1,399.5,201.5"></path><path id="kity_path_139" fill="none" stroke="gray"></path></g><path id="node_outline6" fill="rgb(238, 243, 246)" stroke="rgb(115, 161, 191)" d="M403.5,188.5h121a3,3,0,0,1,3,3v20a3,3,0,0,1,-3,3h-121a3,3,0,0,1,-3,-3v-20a3,3,0,0,1,3,-3z" stroke-width="1"></path><g id="node_text6" fill="black"><text id="kity_text_77" text-rendering="inherit" font-size="14" dy=".8em" y="194.5" x="420.5">不能使用flash</text></g></g><g id="minder_node7"><g id="node_expander6" display="none" style="cursor: pointer;"><path id="kity_path_141" fill="white" stroke="gray" d="M399.5,243.5A6,6,0,1,1,387.5,243.5A6,6,0,1,1,399.5,243.5"></path><path id="kity_path_142" fill="none" stroke="gray"></path></g><path id="node_outline7" fill="rgb(238, 243, 246)" stroke="rgb(115, 161, 191)" d="M403.5,230.5h146a3,3,0,0,1,3,3v20a3,3,0,0,1,-3,3h-146a3,3,0,0,1,-3,-3v-20a3,3,0,0,1,3,-3z" stroke-width="1"></path><g id="node_text7" fill="black"><text id="kity_text_79" text-rendering="inherit" font-size="14" dy=".8em" y="236.5" x="420.5">不能使用模板引擎</text></g></g><g id="minder_node8"><g id="node_expander7" display="none" style="cursor: pointer;"><path id="kity_path_144" fill="white" stroke="gray" d="M399.5,285.5A6,6,0,1,1,387.5,285.5A6,6,0,1,1,399.5,285.5"></path><path id="kity_path_145" fill="none" stroke="gray"></path></g><path id="node_outline8" fill="rgb(238, 243, 246)" stroke="rgb(115, 161, 191)" d="M403.5,272.5h133a3,3,0,0,1,3,3v20a3,3,0,0,1,-3,3h-133a3,3,0,0,1,-3,-3v-20a3,3,0,0,1,3,-3z" stroke-width="1"></path><g id="node_text8" fill="black"><text id="kity_text_81" text-rendering="inherit" font-size="14" dy=".8em" y="278.5" x="420.5">不能使用iframe</text></g></g><g id="minder_node9"><g id="node_expander8" display="none" style="cursor: pointer;"><path id="kity_path_147" fill="white" stroke="gray" d="M399.5,327.5A6,6,0,1,1,387.5,327.5A6,6,0,1,1,399.5,327.5"></path><path id="kity_path_148" fill="none" stroke="gray"></path></g><path id="node_outline9" fill="rgb(238, 243, 246)" stroke="rgb(115, 161, 191)" d="M403.5,314.5h151a3,3,0,0,1,3,3v20a3,3,0,0,1,-3,3h-151a3,3,0,0,1,-3,-3v-20a3,3,0,0,1,3,-3z" stroke-width="1"></path><g id="node_text9" fill="black"><text id="kity_text_83" text-rendering="inherit" font-size="14" dy=".8em" y="320.5" x="420.5">image标签要写alt</text></g></g><g id="minder_node10"><g id="node_expander9" display="none" style="cursor: pointer;"><path id="kity_path_150" fill="white" stroke="gray" d="M399.5,369.5A6,6,0,1,1,387.5,369.5A6,6,0,1,1,399.5,369.5"></path><path id="kity_path_151" fill="none" stroke="gray"></path></g><path id="node_outline10" fill="rgb(238, 243, 246)" stroke="rgb(115, 161, 191)" d="M403.5,356.5h106a3,3,0,0,1,3,3v20a3,3,0,0,1,-3,3h-106a3,3,0,0,1,-3,-3v-20a3,3,0,0,1,3,-3z" stroke-width="1"></path><g id="node_text10" fill="black"><text id="kity_text_85" text-rendering="inherit" font-size="14" dy=".8em" y="362.5" x="420.5">url不能太长</text></g></g><g id="minder_node11"><g id="node_expander10" display="none" style="cursor: pointer;"><path id="kity_path_153" fill="white" stroke="gray" d="M399.5,411.5A6,6,0,1,1,387.5,411.5A6,6,0,1,1,399.5,411.5"></path><path id="kity_path_154" fill="none" stroke="gray"></path></g><path id="node_outline11" fill="rgb(238, 243, 246)" stroke="rgb(115, 161, 191)" d="M403.5,398.5h118a3,3,0,0,1,3,3v20a3,3,0,0,1,-3,3h-118a3,3,0,0,1,-3,-3v-20a3,3,0,0,1,3,-3z" stroke-width="1"></path><g id="node_text11" fill="black"><text id="kity_text_87" text-rendering="inherit" font-size="14" dy=".8em" y="404.5" x="420.5">建立网站地图</text></g></g><g id="minder_node12"><g id="node_expander11" display="none" style="cursor: pointer;"><path id="kity_path_156" fill="white" stroke="gray" d="M323.5,54.5A6,6,0,1,1,311.5,54.5A6,6,0,1,1,323.5,54.5"></path><path id="kity_path_157" fill="none" stroke="gray"></path></g><path id="node_outline12" fill="rgb(238, 243, 246)" stroke="rgb(115, 161, 191)" d="M23.5,41.5h284a3,3,0,0,1,3,3v20a3,3,0,0,1,-3,3h-284a3,3,0,0,1,-3,-3v-20a3,3,0,0,1,3,-3z" stroke-width="1"></path><g id="node_text12" fill="black"><text id="kity_text_89" text-rendering="inherit" font-size="14" dy=".8em" y="47.5" x="40.5">dom层级结构不要过深，一般不超过3层</text></g></g><g id="minder_node13"><g id="node_expander12" display="none" style="cursor: pointer;"><path id="kity_path_159" fill="white" stroke="gray" d="M323.5,96.5A6,6,0,1,1,311.5,96.5A6,6,0,1,1,323.5,96.5"></path><path id="kity_path_160" fill="none" stroke="gray"></path></g><path id="node_outline13" fill="rgb(238, 243, 246)" stroke="rgb(115, 161, 191)" d="M137.5,83.5h170a3,3,0,0,1,3,3v20a3,3,0,0,1,-3,3h-170a3,3,0,0,1,-3,-3v-20a3,3,0,0,1,3,-3z" stroke-width="1"></path><g id="node_text13" fill="black"><text id="kity_text_91" text-rendering="inherit" font-size="14" dy=".8em" y="89.5" x="154.5">网站加载速度影响seo</text></g></g><g id="minder_node14"><g id="node_expander13" display="none" style="cursor: pointer;"><path id="kity_path_162" fill="white" stroke="gray" d="M323.5,138.5A6,6,0,1,1,311.5,138.5A6,6,0,1,1,323.5,138.5"></path><path id="kity_path_163" fill="none" stroke="gray"></path></g><path id="node_outline14" fill="rgb(238, 243, 246)" stroke="rgb(115, 161, 191)" d="M68.5,125.5h239a3,3,0,0,1,3,3v20a3,3,0,0,1,-3,3h-239a3,3,0,0,1,-3,-3v-20a3,3,0,0,1,3,-3z" stroke-width="1"></path><g id="node_text14" fill="black"><text id="kity_text_93" text-rendering="inherit" font-size="14" dy=".8em" y="131.5" x="85.5">控制首页链接数量，不超过100个</text></g></g><g id="minder_node15"><g id="node_expander14" display="none" style="cursor: pointer;"><path id="kity_path_165" fill="white" stroke="gray" d="M323.5,180.5A6,6,0,1,1,311.5,180.5A6,6,0,1,1,323.5,180.5"></path><path id="kity_path_166" fill="none" stroke="gray"></path></g><path id="node_outline15" fill="rgb(238, 243, 246)" stroke="rgb(115, 161, 191)" d="M161.5,167.5h146a3,3,0,0,1,3,3v20a3,3,0,0,1,-3,3h-146a3,3,0,0,1,-3,-3v-20a3,3,0,0,1,3,-3z" stroke-width="1"></path><g id="node_text15" fill="black"><text id="kity_text_95" text-rendering="inherit" font-size="14" dy=".8em" y="173.5" x="178.5">导航全部使用文字</text></g></g><g id="minder_node16"><g id="node_expander15" display="none" style="cursor: pointer;"><path id="kity_path_168" fill="white" stroke="gray" d="M323.5,222.5A6,6,0,1,1,311.5,222.5A6,6,0,1,1,323.5,222.5"></path><path id="kity_path_169" fill="none" stroke="gray"></path></g><path id="node_outline16" fill="rgb(238, 243, 246)" stroke="rgb(115, 161, 191)" d="M168.5,209.5h139a3,3,0,0,1,3,3v20a3,3,0,0,1,-3,3h-139a3,3,0,0,1,-3,-3v-20a3,3,0,0,1,3,-3z" stroke-width="1"></path><g id="node_text16" fill="black"><text id="kity_text_97" text-rendering="inherit" font-size="14" dy=".8em" y="215.5" x="185.5">外链加上nofllow</text></g></g><g id="minder_node17"><g id="node_expander16" display="none" style="cursor: pointer;"><path id="kity_path_171" fill="white" stroke="gray" d="M323.5,264.5A6,6,0,1,1,311.5,264.5A6,6,0,1,1,323.5,264.5"></path><path id="kity_path_172" fill="none" stroke="gray"></path></g><path id="node_outline17" fill="rgb(238, 243, 246)" stroke="rgb(115, 161, 191)" d="M138.5,251.5h169a3,3,0,0,1,3,3v20a3,3,0,0,1,-3,3h-169a3,3,0,0,1,-3,-3v-20a3,3,0,0,1,3,-3z" stroke-width="1"></path><g id="node_text17" fill="black"><text id="kity_text_99" text-rendering="inherit" font-size="14" dy=".8em" y="257.5" x="155.5">使用html5语义化标签</text></g></g><g id="minder_node18"><g id="node_expander17" display="none" style="cursor: pointer;"><path id="kity_path_174" fill="white" stroke="gray" d="M323.5,306.5A6,6,0,1,1,311.5,306.5A6,6,0,1,1,323.5,306.5"></path><path id="kity_path_175" fill="none" stroke="gray"></path></g><path id="node_outline18" fill="rgb(238, 243, 246)" stroke="rgb(115, 161, 191)" d="M129.5,293.5h178a3,3,0,0,1,3,3v20a3,3,0,0,1,-3,3h-178a3,3,0,0,1,-3,-3v-20a3,3,0,0,1,3,-3z" stroke-width="1"></path><g id="node_text18" fill="black"><text id="kity_text_101" text-rendering="inherit" font-size="14" dy=".8em" y="299.5" x="146.5">dom结构符合w3c标准</text></g></g><g id="minder_node19"><g id="node_expander18" display="none" style="cursor: pointer;"><path id="kity_path_177" fill="white" stroke="gray" d="M323.5,348.5A6,6,0,1,1,311.5,348.5A6,6,0,1,1,323.5,348.5"></path><path id="kity_path_178" fill="none" stroke="gray"></path></g><path id="node_outline19" fill="rgb(238, 243, 246)" stroke="rgb(115, 161, 191)" d="M105.5,335.5h202a3,3,0,0,1,3,3v20a3,3,0,0,1,-3,3h-202a3,3,0,0,1,-3,-3v-20a3,3,0,0,1,3,-3z" stroke-width="1"></path><g id="node_text19" fill="black"><text id="kity_text_103" text-rendering="inherit" font-size="14" dy=".8em" y="341.5" x="122.5">重要代码在前面，优先抓取</text></g></g><g id="minder_node20"><g id="node_expander19" display="none" style="cursor: pointer;"><path id="kity_path_180" fill="white" stroke="gray" d="M323.5,390.5A6,6,0,1,1,311.5,390.5A6,6,0,1,1,323.5,390.5"></path><path id="kity_path_181" fill="none" stroke="gray"></path></g><path id="node_outline20" fill="rgb(238, 243, 246)" stroke="rgb(115, 161, 191)" d="M133.5,377.5h174a3,3,0,0,1,3,3v20a3,3,0,0,1,-3,3h-174a3,3,0,0,1,-3,-3v-20a3,3,0,0,1,3,-3z" stroke-width="1"></path><g id="node_text20" fill="black"><text id="kity_text_105" text-rendering="inherit" font-size="14" dy=".8em" y="383.5" x="150.5">最重要的，是内容为主</text></g></g></g></g></svg>